<svg width="121" height="56" viewBox="0 0 121 56" fill="none" xmlns="http://www.w3.org/2000/svg">
<path d="M52.6776 54.8926V38.4084H59.2416C60.5035 38.4084 61.5786 38.6457 62.4669 39.1203C63.3552 39.5949 64.0335 40.2528 64.5017 41.0922C64.97 41.9325 65.2042 42.8994 65.2042 43.9938C65.2042 45.0882 64.9656 46.0542 64.4892 46.8918C64.012 47.7285 63.323 48.3811 62.4213 48.8477C61.5196 49.3143 60.4293 49.5481 59.1513 49.5481H56.1933V46.7554H58.5821C59.2595 46.7554 59.818 46.6385 60.2595 46.4057C60.701 46.1719 61.0316 45.8479 61.2506 45.4317C61.4695 45.0155 61.5794 44.5374 61.5794 43.9946C61.5794 43.4519 61.4695 42.9684 61.2506 42.5576C61.0316 42.1467 60.6992 41.828 60.255 41.5995C59.8109 41.372 59.2479 41.2578 58.5651 41.2578H56.1933V54.8926H52.6758H52.6776Z" fill="#343434"/>
<path d="M68.0255 40.9363C67.5107 40.9363 67.0711 40.7663 66.7055 40.4254C66.34 40.0846 66.1568 39.6755 66.1568 39.1982C66.1568 38.721 66.34 38.3199 66.7055 37.979C67.0711 37.6381 67.5107 37.4681 68.0255 37.4681C68.5402 37.4681 68.9799 37.639 69.3455 37.979C69.711 38.3199 69.8942 38.7263 69.8942 39.1982C69.8942 39.6702 69.7119 40.0854 69.3455 40.4254C68.9799 40.7663 68.5394 40.9363 68.0255 40.9363ZM66.2873 54.8935V42.5301H69.7476V54.8935H66.2873Z" fill="#343434"/>
<path d="M71.2999 54.8926V52.8481L77.409 45.3547V45.2661H71.5108V42.5292H81.5762V44.7588L75.8406 52.0672V52.1557H81.7871V54.8926H71.299H71.2999Z" fill="#343434"/>
<path d="M83.2358 54.8926V52.8481L89.3449 45.3547V45.2661H83.4467V42.5292H93.5121V44.7588L87.7765 52.0672V52.1557H93.723V54.8926H83.2349H83.2358Z" fill="#343434"/>
<path d="M98.7946 55.1263C97.9983 55.1263 97.2888 54.9882 96.6659 54.712C96.043 54.4357 95.5515 54.0249 95.1913 53.4803C94.8312 52.9358 94.6515 52.2558 94.6515 51.4394C94.6515 50.7523 94.7784 50.1759 95.0331 49.7092C95.2878 49.2426 95.6346 48.8672 96.0725 48.5821C96.5113 48.2979 97.0108 48.0827 97.5712 47.9384C98.1315 47.7932 98.7204 47.6913 99.3379 47.6329C100.064 47.5576 100.649 47.4868 101.093 47.4195C101.537 47.3522 101.86 47.2522 102.06 47.1176C102.26 46.9839 102.36 46.7846 102.36 46.5217V46.473C102.36 45.963 102.199 45.5689 101.877 45.29C101.554 45.0111 101.098 44.8712 100.508 44.8712C99.8849 44.8712 99.3898 45.0067 99.0216 45.2776C98.6534 45.5486 98.4094 45.8886 98.2906 46.2959L95.0894 46.0382C95.2521 45.2874 95.5711 44.6366 96.0483 44.0867C96.5247 43.5369 97.1413 43.1127 97.8965 42.8152C98.6525 42.5177 99.5283 42.369 100.525 42.369C101.218 42.369 101.882 42.4496 102.519 42.6107C103.156 42.7719 103.722 43.0215 104.217 43.3589C104.713 43.6971 105.104 44.1301 105.392 44.6587C105.679 45.1873 105.822 45.8195 105.822 46.5544V54.8935H102.54V53.1793H102.443C102.242 53.5653 101.974 53.9053 101.638 54.1975C101.302 54.4897 100.899 54.7182 100.428 54.882C99.9573 55.0458 99.413 55.1272 98.7955 55.1272L98.7946 55.1263ZM99.7857 52.7596C100.295 52.7596 100.745 52.6595 101.134 52.4576C101.524 52.2566 101.83 51.9839 102.052 51.6404C102.274 51.2968 102.385 50.9081 102.385 50.4734V49.1612C102.277 49.2311 102.13 49.294 101.943 49.3498C101.756 49.4055 101.546 49.4569 101.314 49.5029C101.081 49.5481 100.848 49.5888 100.615 49.6234C100.382 49.6588 100.171 49.6889 99.9814 49.7163C99.5748 49.7756 99.22 49.8695 98.917 49.9979C98.6132 50.1263 98.3781 50.2998 98.2101 50.5168C98.0421 50.7337 97.9581 51.0037 97.9581 51.326C97.9581 51.7927 98.1297 52.1486 98.4738 52.393C98.8178 52.6374 99.2548 52.7596 99.7857 52.7596Z" fill="#343434"/>
<path d="M84.7514 32.7115C84.5218 32.7788 84.1956 32.8621 83.7711 32.9603C83.3466 33.0586 82.8434 33.1233 82.2608 33.1534C81.0847 33.2145 80.0963 33.0932 79.2974 32.7903C78.4984 32.4857 77.897 32.0058 77.4939 31.3497C77.0918 30.6936 76.8961 29.8711 76.9095 28.882V22.4936H74.7522V18.8111H76.9095V15.4243H82.0383V18.8111H84.4914V22.4936H82.0383V28.4039C82.0383 28.5996 82.0722 28.7643 82.1401 28.8962C82.2081 29.0281 82.3135 29.1264 82.4565 29.191C82.5986 29.2557 82.7818 29.2876 83.0043 29.2876C83.1589 29.2876 83.3394 29.269 83.5477 29.2318C83.7559 29.1946 83.9087 29.1645 84.0079 29.1397L84.7514 32.7115Z" fill="#343434"/>
<path d="M73.8478 32.9506H68.7199V19.8568L63.768 25.0074L67.357 32.9506H61.4856L59.4605 27.9691L58.5195 28.9413L57.8064 32.9506H52.6776L56.0333 14.0979H61.1612L59.4766 23.5614H59.6634L63.9647 18.8111H73.8567L73.8478 32.9506Z" fill="#343434"/>
<path d="M90.6506 22.8017C90.9848 22.5476 91.3753 22.4201 91.8213 22.4201C92.3914 22.4201 92.857 22.6149 93.2199 23.0045C93.5818 23.3941 93.7972 23.9608 93.866 24.7028H98.623C98.6168 23.4756 98.3317 22.4059 97.7687 21.4948C97.2048 20.5837 96.4103 19.878 95.3852 19.3778C94.3602 18.8775 93.1475 18.6269 91.748 18.6269C90.1993 18.6269 88.8739 18.9324 87.7712 19.5424C86.6684 20.1534 85.823 21.0061 85.2349 22.1014C84.646 23.1966 84.352 24.469 84.352 25.9167C84.352 27.3644 84.646 28.6368 85.2349 29.732C85.823 30.8273 86.6684 31.6809 87.7712 32.291C88.8739 32.9019 90.1993 33.2065 91.748 33.2065C93.16 33.2065 94.3754 32.955 95.3951 32.4521C96.4138 31.9492 97.2021 31.2355 97.7597 30.312C98.3174 29.3885 98.6051 28.3038 98.6239 27.058H93.8669C93.8294 27.5486 93.7194 27.9647 93.5371 28.3056C93.3539 28.6465 93.1171 28.9042 92.8267 29.0795C92.5353 29.2539 92.2011 29.3416 91.8231 29.3416C91.3771 29.3416 90.9866 29.2141 90.6524 28.9599C90.3181 28.7049 90.0581 28.3215 89.8722 27.8089C89.6863 27.2962 89.5934 26.6534 89.5934 25.8804C89.5934 25.1074 89.6863 24.4637 89.8722 23.9519C90.0581 23.4393 90.3181 23.0559 90.6524 22.8009L90.6506 22.8017Z" fill="#343434"/>
<path d="M111.541 19.3078C110.795 18.8536 109.916 18.6269 108.907 18.6269C107.898 18.6269 106.953 18.8801 106.204 19.3866C105.454 19.8931 104.919 20.597 104.596 21.4993H104.448V14.0979H99.5051V32.9506H104.634V24.9967C104.64 24.5301 104.729 24.1299 104.898 23.7952C105.068 23.4605 105.31 23.2028 105.623 23.0222C105.936 22.8407 106.3 22.7504 106.715 22.7504C107.372 22.7504 107.878 22.9496 108.234 23.3489C108.591 23.7483 108.765 24.2972 108.759 24.9967V32.9506H113.888V23.9289C113.894 22.8983 113.691 21.9836 113.279 21.1858C112.867 20.388 112.288 19.762 111.542 19.3078H111.541Z" fill="#343434"/>
<path d="M119.795 27.0598L120.278 14.0979H115.075L115.558 27.0598H119.795Z" fill="#343434"/>
<path d="M119.484 28.8732C118.96 28.3756 118.358 28.1267 117.676 28.1267C116.958 28.1267 116.343 28.3756 115.832 28.8732C115.32 29.3699 115.067 29.9685 115.074 30.6679C115.067 31.386 115.32 31.9952 115.832 32.4955C116.343 32.9958 116.958 33.2454 117.676 33.2454C118.135 33.2454 118.559 33.1303 118.95 32.9001C119.339 32.6699 119.657 32.36 119.901 31.9704C120.146 31.5808 120.271 31.1461 120.278 30.6679C120.271 29.9685 120.007 29.3699 119.483 28.8732H119.484Z" fill="#343434"/>
<path d="M71.2668 17.0801C72.6217 17.0801 73.72 15.9919 73.72 14.6495C73.72 13.3072 72.6217 12.219 71.2668 12.219C69.912 12.219 68.8137 13.3072 68.8137 14.6495C68.8137 15.9919 69.912 17.0801 71.2668 17.0801Z" fill="#343434"/>
<path d="M15.4973 22.5326C13.987 22.5326 13.365 21.1699 13.2086 20.7466C13.0665 19.1024 13.3739 17.8035 14.1246 16.8844C14.6394 16.2539 15.273 16.1211 15.7136 16.1211C16.2515 16.1211 16.8119 16.3053 17.3347 16.6533C18.3034 17.2988 18.6743 18.5153 18.6966 19.3609C18.6975 19.3946 18.6984 19.4273 18.6984 19.4601C18.6984 20.2605 18.4321 20.8007 17.6448 21.6037C17.1122 22.1456 16.4222 22.4724 15.701 22.5237C15.6322 22.5281 15.5643 22.5308 15.4982 22.5308L15.4973 22.5326Z" fill="#CCFF00"/>
<path d="M15.7136 17.4502C15.9799 17.4502 16.29 17.5591 16.5876 17.7565C17.0952 18.0948 17.3418 18.8438 17.357 19.3972C17.357 19.4185 17.3579 19.4397 17.3579 19.461C17.3579 19.7691 17.3579 19.9914 16.6841 20.6785C16.3811 20.9866 15.9977 21.1725 15.6054 21.2C15.5679 21.2026 15.5321 21.2035 15.4973 21.2035C15.2506 21.2035 15.0621 21.1513 14.8279 20.8821C14.6957 20.7307 14.5947 20.5563 14.5294 20.4217C14.4571 19.2352 14.6715 18.3276 15.1675 17.7202C15.3248 17.5281 15.483 17.4493 15.7144 17.4493M15.7144 14.793C14.7278 14.793 13.7823 15.1932 13.0835 16.0485C12.2765 17.0367 11.6438 18.5941 11.8895 21.022C11.8895 21.022 12.7233 23.8598 15.4982 23.8598C15.5956 23.8598 15.6948 23.8563 15.7967 23.8492C16.8619 23.7739 17.8575 23.2923 18.6055 22.5308C19.5251 21.594 20.0389 20.7431 20.0389 19.461C20.0389 19.4167 20.0389 19.3716 20.0371 19.3264C20.0032 18.0576 19.4419 16.4558 18.0827 15.5509C17.3382 15.0551 16.5125 14.793 15.7136 14.793H15.7144Z" fill="#343434"/>
<path d="M21.4697 23.0798C21.4697 23.4614 21.1578 23.7713 20.7726 23.7713C20.3875 23.7713 20.0747 23.4614 20.0747 23.0798C20.0747 22.6981 20.3875 22.3882 20.7726 22.3882C21.1578 22.3882 21.4697 22.6981 21.4697 23.0798Z" fill="#CCFF00"/>
<path d="M20.7726 22.3882C20.3875 22.3882 20.0747 22.6981 20.0747 23.0798C20.0747 23.4614 20.3875 23.7713 20.7726 23.7713C21.1578 23.7713 21.4697 23.4614 21.4697 23.0798C21.4697 22.6981 21.1578 22.3882 20.7726 22.3882Z" fill="#343434"/>
<path d="M22.6082 21.7268C22.6082 22.035 22.3553 22.2855 22.0443 22.2855C21.7333 22.2855 21.4813 22.035 21.4813 21.7268C21.4813 21.4187 21.7333 21.169 22.0443 21.169C22.3553 21.169 22.6082 21.4187 22.6082 21.7268Z" fill="#CCFF00"/>
<path d="M22.0443 21.169C21.7333 21.169 21.4813 21.4187 21.4813 21.7268C21.4813 22.035 21.7333 22.2855 22.0443 22.2855C22.3553 22.2855 22.6082 22.035 22.6082 21.7268C22.6082 21.4187 22.3553 21.169 22.0443 21.169Z" fill="#343434"/>
<path d="M22.8558 23.2542C22.8558 23.5003 22.6547 23.6996 22.4063 23.6996C22.1578 23.6996 21.9558 23.5003 21.9558 23.2542C21.9558 23.008 22.1569 22.8088 22.4063 22.8088C22.6556 22.8088 22.8558 23.008 22.8558 23.2542Z" fill="#CCFF00"/>
<path d="M22.4063 22.8088C22.1578 22.8088 21.9558 23.008 21.9558 23.2542C21.9558 23.5003 22.1569 23.6996 22.4063 23.6996C22.6556 23.6996 22.8558 23.5003 22.8558 23.2542C22.8558 23.008 22.6547 22.8088 22.4063 22.8088Z" fill="#343434"/>
<path d="M27.2392 18.6526C27.1016 18.6048 26.7441 18.4427 26.7656 18.1895C26.7692 18.147 26.7763 18.1204 26.7808 18.1089C26.8058 18.0939 26.888 18.062 27.0382 18.062C27.0837 18.062 27.132 18.0647 27.182 18.0709C27.2366 18.0771 27.2714 18.0833 27.292 18.0886C27.3054 18.1107 27.3277 18.1497 27.3536 18.2143C27.392 18.3108 27.4296 18.4427 27.3876 18.5207C27.3554 18.58 27.2893 18.6287 27.2392 18.6526Z" fill="#CCFF00"/>
<path d="M27.0391 16.733C26.182 16.733 25.5055 17.1898 25.4304 18.0771C25.3214 19.3556 26.6646 19.9914 27.2428 19.9914C27.9899 19.9914 29.1615 19.1254 28.6003 17.7229C28.3027 16.9791 27.8407 16.8091 27.342 16.7507C27.2392 16.7383 27.1383 16.7321 27.0399 16.7321L27.0391 16.733Z" fill="#343434"/>
<path d="M29.233 16.98C28.7433 16.4 28.0444 15.937 27.3036 15.8378C26.6038 15.7492 25.9729 16.014 25.4304 16.4301C25.4304 16.4301 25.426 16.4222 25.4188 16.408C25.0051 16.887 24.6958 17.4431 24.5636 18.0886C24.4349 18.68 24.459 19.2387 24.493 19.8771C24.3428 19.7169 24.2079 19.5407 24.0962 19.3503C23.7369 18.7553 23.5788 18.0443 23.6592 17.3492C23.7307 16.7914 23.9326 16.2787 24.2285 15.813C24.3804 15.5748 24.5564 15.3481 24.753 15.1356C24.7468 15.1241 24.7432 15.117 24.7432 15.117C24.7566 15.1126 24.77 15.1073 24.7834 15.1029C24.9461 14.9293 25.1221 14.7646 25.308 14.6088H27.9354C27.6879 14.7336 27.4439 14.8647 27.2071 15.0037C27.3161 15.04 27.4242 15.0825 27.5288 15.133C27.8889 15.3048 28.2035 15.5385 28.4698 15.8139C28.7969 16.1503 29.0525 16.5514 29.233 16.98Z" fill="#CCFF00"/>
<path d="M27.9372 14.6088H25.3098C25.123 14.7646 24.9479 14.9293 24.7852 15.1029C24.7718 15.1073 24.7584 15.1117 24.745 15.117C24.745 15.117 24.7486 15.1241 24.7548 15.1356C24.5582 15.349 24.3822 15.5748 24.2302 15.813C23.9344 16.2787 23.7334 16.7914 23.661 17.3492C23.5805 18.0443 23.7387 18.7544 24.098 19.3503C24.2106 19.5416 24.3446 19.7169 24.4948 19.8771C24.4599 19.2387 24.4367 18.68 24.5654 18.0886C24.6967 17.4431 25.0068 16.887 25.4206 16.408C25.4278 16.4222 25.4322 16.4301 25.4322 16.4301C25.9041 16.068 26.443 15.8201 27.0355 15.8201C27.1239 15.8201 27.2142 15.8254 27.3054 15.8369C28.0453 15.9361 28.7451 16.3992 29.2348 16.9791C29.0543 16.5506 28.7987 16.1495 28.4716 15.813C28.2053 15.5376 27.8907 15.3039 27.5306 15.1321C27.426 15.0816 27.3188 15.0391 27.2088 15.0028C27.4466 14.8647 27.6896 14.7328 27.9372 14.6079V14.6088Z" fill="#343434"/>
<path d="M36.1062 14.6088C36.0651 14.6159 36.024 14.6247 35.9829 14.6363C35.5254 14.7629 35.2698 15.2295 35.1161 15.6465C35.0973 15.7014 35.0794 15.7572 35.0624 15.8139C35.0249 15.9325 34.9909 16.0529 34.9579 16.1725C34.9284 16.0547 34.9042 15.9352 34.8873 15.8139C34.8524 15.5598 34.8515 15.2959 34.9007 15.0241C34.9132 14.9532 34.9293 14.8859 34.9489 14.8204C34.9498 14.7992 34.9534 14.777 34.9579 14.7505C34.9668 14.7 34.9641 14.6531 34.9534 14.6088H36.1071H36.1062Z" fill="#CCFF00"/>
<path d="M36.1062 14.6088H34.9525C34.9632 14.6531 34.9659 14.7 34.957 14.7505C34.9525 14.7762 34.9498 14.7992 34.948 14.8195C34.9284 14.8851 34.9123 14.9532 34.8998 15.0241C34.8506 15.2959 34.8515 15.5589 34.8864 15.8139C34.9034 15.9352 34.9275 16.0556 34.957 16.1725C34.99 16.0521 35.024 15.9316 35.0615 15.8139C35.0785 15.7581 35.0964 15.7014 35.1152 15.6465C35.2689 15.2295 35.5245 14.7629 35.982 14.6363C36.0231 14.6247 36.0642 14.6159 36.1053 14.6088H36.1062Z" fill="#343434"/>
<path d="M2.75706 54.7518C1.93845 54.7518 1.16722 54.395 0.641737 53.7716C0.116259 53.1492 -0.100904 52.3337 0.0438712 51.535L9.06369 2.01879C9.27639 0.849133 10.3023 0 11.5016 0H22.2668C23.0032 0 23.6967 0.321413 24.1685 0.881008C24.6404 1.44149 24.8361 2.17374 24.7047 2.89183L22.8119 13.2426L22.3651 13.2948C22.2891 13.3037 22.2114 13.3116 22.1274 13.3178H22.1202C21.8798 13.3347 21.6305 13.3426 21.3794 13.3426C21.2659 13.3426 21.1497 13.3409 21.0326 13.3373C20.9459 13.3347 20.8566 13.3311 20.7672 13.3267C20.9951 13.9722 21.1381 14.6389 21.1872 15.2941L21.3517 17.5059L20.0809 15.6802C19.3204 14.5876 18.6197 13.6171 17.7484 12.8087C17.2283 12.32 16.4195 11.7409 15.5008 11.7409C15.4418 11.7409 15.3828 11.7435 15.3239 11.748C14.4329 11.8657 13.6679 12.6848 13.1004 13.3869C12.5571 14.0767 12.0432 14.8886 11.4838 15.9405C10.9511 16.9366 10.6142 17.822 10.4534 18.6473C10.3104 19.3609 10.2559 20.1401 10.2907 20.9671C10.3077 21.2983 10.347 21.6967 10.4114 22.1837C10.4784 22.7079 10.4757 23.2471 10.4024 23.7872C10.3559 24.1733 10.2496 24.5381 10.1477 24.8914C10.1164 24.9985 10.0878 25.0994 10.0601 25.1995C9.59007 27.0288 9.56147 28.4924 9.96988 29.6745C10.0861 29.9959 10.2299 30.2704 10.423 30.5378L10.4292 30.5466C11.2148 31.68 12.0789 32.6124 13.0709 33.396L13.0754 33.3995C13.1558 33.4642 13.2389 33.5297 13.3292 33.5979L13.4534 33.6554L13.4999 33.6775L13.566 33.7236C14.2801 34.2203 15.0263 34.6542 15.9226 35.15L15.9441 35.1058L16.5142 35.436C16.911 35.6662 17.3203 35.8938 17.7681 36.132L17.9781 36.2418C18.0737 36.2913 18.1684 36.3409 18.264 36.3914L18.3034 36.4118L18.3078 36.4153C20.2167 37.3981 22.2766 38.2774 24.4322 39.0282C25.3491 39.3461 26.2776 39.6232 27.19 39.8517C27.7566 39.9925 28.367 40.127 28.9836 40.1563C29.1105 40.1625 29.2312 40.166 29.3447 40.166C29.5743 40.166 29.7826 40.1536 29.9783 40.1271C30.5333 39.9597 30.9318 39.8508 31.2312 39.7862L31.3706 39.7534C31.9167 39.6241 32.4332 39.501 32.8854 39.2761C32.9149 39.2602 32.9551 39.239 33.0132 39.2097C33.0463 39.1929 33.0999 39.1655 33.1204 39.154C33.2688 39.0636 33.4144 38.9645 33.5521 38.86C33.8586 38.6289 34.141 38.3633 34.3921 38.0684L35.0186 37.3344L41.6085 52.053C41.8748 52.6489 41.8203 53.3298 41.462 53.8761C41.1036 54.4224 40.4968 54.7483 39.8391 54.7483H2.75706V54.7518Z" fill="#CCFF00"/>
<path d="M29.2991 38.9096C28.4108 38.9096 27.5047 38.8086 26.6056 38.6094C24.4018 38.1215 22.6806 37.2131 21.3428 35.8318C20.19 34.6409 19.5429 33.3287 19.0282 32.1918C18.6868 31.4383 17.9754 29.8702 16.9701 28.581C15.8708 27.1714 14.7064 26.4568 13.5098 26.4568C12.9548 26.4568 12.3721 26.61 11.7769 26.911L9.74741 27.9382L10.9914 26.046C11.0334 25.9822 12.0531 24.4823 14.9781 24.4823C16.5045 24.4823 18.2918 24.8887 20.29 25.69L20.3562 25.7166L20.3883 25.7396C20.4411 25.7679 20.8468 25.9698 21.6279 25.9698C22.6601 25.9698 24.4322 25.6174 27.0131 23.9404C30.09 21.9402 32.1231 20.6191 34.3412 20.6191C35.4262 20.6191 36.5191 20.9406 37.7524 21.625L38.3672 21.0627C38.3949 20.9521 38.4191 20.8467 38.4387 20.7466L38.4968 20.4235L38.5022 20.3712L38.5183 20.2295C38.5987 19.5239 38.5191 18.9129 38.2895 18.4622C38.2796 18.4436 38.2627 18.4153 38.2448 18.3861C38.1894 18.2966 38.1143 18.1753 38.0687 18.016C37.9874 17.7512 37.9883 17.4696 38.0723 17.2005L38.0982 17.1128C38.2457 16.5851 38.1527 16.0042 37.8417 15.5181C37.7148 15.318 37.5567 15.1445 37.3717 15.001L37.3592 14.9913C37.176 14.8417 36.9525 14.7186 36.6576 14.6088C36.6103 14.5999 36.5718 14.5938 36.537 14.5893L36.5388 14.5645L36.4807 14.5433L36.3824 14.4406L36.5575 14.2768L36.6147 13.3896H45.4898C46.2753 13.3896 46.967 13.858 47.2539 14.5822C47.5399 15.3065 47.3522 16.1158 46.7758 16.6444L37.7452 24.9153L37.3931 24.2202C37.3493 24.152 37.1581 23.882 36.7121 23.5685C36.5164 23.4304 36.2975 23.302 36.058 23.1842C36.0517 23.5614 36.058 24.0166 36.1018 24.454C36.1652 25.0915 36.2796 25.4138 36.3636 25.5723L36.5808 25.9813L31.8685 30.2969L33.9882 35.0314L33.7318 35.3209C33.6522 35.4112 33.6469 35.7176 33.7103 35.9947C33.7443 35.985 33.7773 35.9753 33.8086 35.9655L34.3305 35.7955L35.0204 37.3362L34.5414 37.6053C34.1732 37.8125 33.7782 37.9994 33.3671 38.1605C32.0999 38.659 30.7317 38.9122 29.3009 38.9122L29.2991 38.9096ZM20.9067 32.1431C21.3115 32.9789 22.207 34.5346 23.5448 35.2749C23.8889 34.7595 24.5091 34.2318 25.4662 34.2318C25.7155 34.2318 25.9774 34.2681 26.249 34.3398L25.7656 33.6855C25.754 33.6696 24.434 31.9447 22.2374 31.9447C21.8039 31.9447 21.358 32.0112 20.9067 32.1431ZM28.8139 34.594C29.3966 34.5993 29.8523 34.7702 30.1749 34.9508C30.4225 34.7232 30.7603 34.5125 31.1937 34.4054C31.1356 34.3452 31.0749 34.2823 31.0096 34.2194C30.1249 33.3535 28.6709 32.329 26.5386 31.9757C26.6923 32.3361 26.821 32.7744 26.8621 33.2818L26.9693 34.6037C26.9953 34.6161 27.0221 34.6285 27.048 34.6409C27.1159 34.6701 27.3652 34.7781 27.5922 34.8835C27.8773 34.7533 28.3206 34.5949 28.7933 34.5949H28.8139V34.594Z" fill="#CCFF00"/>
<path d="M37.5343 18.3622C37.0455 18.6411 36.0902 18.6065 35.8569 17.3537C35.7738 16.9065 35.8229 16.4408 36.0338 16.037C36.0732 15.96 36.1205 15.8847 36.1733 15.8139C36.4101 15.4995 36.7881 15.2835 37.3815 15.5323C37.554 15.6049 37.6934 15.7005 37.8042 15.8139C38.5451 16.5692 38.0205 18.0859 37.5334 18.363L37.5343 18.3622Z" fill="#CCFF00"/>
<path d="M36.8989 15.4234C36.5718 15.4234 36.3386 15.5952 36.1742 15.8139C36.1205 15.8847 36.0741 15.9609 36.0347 16.037C35.8247 16.4417 35.7747 16.9065 35.8578 17.3537C36.0187 18.2205 36.5263 18.5047 36.9856 18.5047C37.1903 18.5047 37.3851 18.4489 37.5352 18.363C38.0223 18.0859 38.5469 16.57 37.806 15.8139C37.6952 15.7005 37.5558 15.604 37.3833 15.5323C37.2028 15.457 37.0428 15.4243 36.8998 15.4243L36.8989 15.4234Z" fill="#343434"/>
<path d="M20.038 19.4619C20.038 20.744 19.5242 21.5949 18.6046 22.5317C17.8566 23.2932 16.861 23.7748 15.7958 23.8501C12.7814 24.0626 11.8886 21.0229 11.8886 21.0229C11.6429 18.595 12.2765 17.0376 13.0826 16.0494C14.3471 14.5017 16.4187 14.4441 18.0827 15.5518C19.4411 16.4567 20.0032 18.0585 20.0371 19.3273C20.038 19.3724 20.0389 19.4176 20.0389 19.4619H20.038Z" fill="#CCFF00"/>
<path d="M21.4697 23.0798C21.4697 23.4614 21.1578 23.7713 20.7726 23.7713C20.3875 23.7713 20.0747 23.4614 20.0747 23.0798C20.0747 22.6981 20.3875 22.3882 20.7726 22.3882C21.1578 22.3882 21.4697 22.6981 21.4697 23.0798Z" fill="#CCFF00"/>
<path d="M22.6082 21.7268C22.6082 22.035 22.3553 22.2855 22.0443 22.2855C21.7333 22.2855 21.4813 22.035 21.4813 21.7268C21.4813 21.4187 21.7333 21.169 22.0443 21.169C22.3553 21.169 22.6082 21.4187 22.6082 21.7268Z" fill="#CCFF00"/>
<path d="M22.8558 23.2542C22.8558 23.5003 22.6547 23.6996 22.4063 23.6996C22.1578 23.6996 21.9558 23.5003 21.9558 23.2542C21.9558 23.008 22.1569 22.8088 22.4063 22.8088C22.6556 22.8088 22.8558 23.008 22.8558 23.2542Z" fill="#CCFF00"/>
<path d="M27.2428 19.9923C26.6637 19.9923 25.3214 19.3565 25.4304 18.0779C25.5145 17.088 26.3465 16.6338 27.342 16.7516C27.8407 16.81 28.3027 16.98 28.6003 17.7238C29.1615 19.1263 27.9899 19.9923 27.2428 19.9923Z" fill="#CCFF00"/>
<path d="M37.8051 15.8139C37.6943 15.7005 37.5549 15.604 37.3824 15.5323C36.789 15.2835 36.411 15.4995 36.1742 15.8139C36.1205 15.8847 36.0741 15.9609 36.0347 16.037C35.8247 16.4417 35.7747 16.9065 35.8578 17.3537C36.091 18.6065 37.0464 18.6411 37.5352 18.3622C38.0223 18.085 38.5469 16.5692 37.806 15.813L37.8051 15.8139ZM37.8051 15.8139C37.6943 15.7005 37.5549 15.604 37.3824 15.5323C36.789 15.2835 36.411 15.4995 36.1742 15.8139C36.1205 15.8847 36.0741 15.9609 36.0347 16.037C35.8247 16.4417 35.7747 16.9065 35.8578 17.3537C36.091 18.6065 37.0464 18.6411 37.5352 18.3622C38.0223 18.085 38.5469 16.5692 37.806 15.813L37.8051 15.8139ZM37.8051 15.8139C37.6943 15.7005 37.5549 15.604 37.3824 15.5323C36.789 15.2835 36.411 15.4995 36.1742 15.8139C36.1205 15.8847 36.0741 15.9609 36.0347 16.037C35.8247 16.4417 35.7747 16.9065 35.8578 17.3537C36.091 18.6065 37.0464 18.6411 37.5352 18.3622C38.0223 18.085 38.5469 16.5692 37.806 15.813L37.8051 15.8139ZM37.8051 15.8139C37.6943 15.7005 37.5549 15.604 37.3824 15.5323C36.789 15.2835 36.411 15.4995 36.1742 15.8139C36.1205 15.8847 36.0741 15.9609 36.0347 16.037C35.8247 16.4417 35.7747 16.9065 35.8578 17.3537C36.091 18.6065 37.0464 18.6411 37.5352 18.3622C38.0223 18.085 38.5469 16.5692 37.806 15.813L37.8051 15.8139ZM37.8051 15.8139C37.6943 15.7005 37.5549 15.604 37.3824 15.5323C36.789 15.2835 36.411 15.4995 36.1742 15.8139C36.1205 15.8847 36.0741 15.9609 36.0347 16.037C35.8247 16.4417 35.7747 16.9065 35.8578 17.3537C36.091 18.6065 37.0464 18.6411 37.5352 18.3622C38.0223 18.085 38.5469 16.5692 37.806 15.813L37.8051 15.8139ZM37.8051 15.8139C37.6943 15.7005 37.5549 15.604 37.3824 15.5323C36.789 15.2835 36.411 15.4995 36.1742 15.8139C36.1205 15.8847 36.0741 15.9609 36.0347 16.037C35.8247 16.4417 35.7747 16.9065 35.8578 17.3537C36.091 18.6065 37.0464 18.6411 37.5352 18.3622C38.0223 18.085 38.5469 16.5692 37.806 15.813L37.8051 15.8139ZM37.8051 15.8139C37.6943 15.7005 37.5549 15.604 37.3824 15.5323C36.789 15.2835 36.411 15.4995 36.1742 15.8139C36.1205 15.8847 36.0741 15.9609 36.0347 16.037C35.8247 16.4417 35.7747 16.9065 35.8578 17.3537C36.091 18.6065 37.0464 18.6411 37.5352 18.3622C38.0223 18.085 38.5469 16.5692 37.806 15.813L37.8051 15.8139ZM37.8051 15.8139C37.6943 15.7005 37.5549 15.604 37.3824 15.5323C36.789 15.2835 36.411 15.4995 36.1742 15.8139C36.1205 15.8847 36.0741 15.9609 36.0347 16.037C35.8247 16.4417 35.7747 16.9065 35.8578 17.3537C36.091 18.6065 37.0464 18.6411 37.5352 18.3622C38.0223 18.085 38.5469 16.5692 37.806 15.813L37.8051 15.8139ZM39.6157 18.2108C39.7435 17.7999 39.8051 17.2253 39.7551 16.7622C39.7283 16.439 39.6595 16.1202 39.5522 15.8139C39.5156 15.7067 39.4736 15.6023 39.428 15.4987H39.1706L37.8927 14.6097L37.8471 14.5778L37.0741 14.0395L35.8712 13.8996L35.6987 13.8792L29.8997 13.2027L29.6682 13.0088L29.5833 12.938L29.3957 12.7804L26.3465 10.2303L23.434 11.6213C23.2749 11.8215 23.1042 12.01 22.8933 12.1446C22.7807 12.2048 22.6422 12.2518 22.484 12.2872C22.1373 12.3642 21.6958 12.3864 21.232 12.3775C20.5045 12.3633 19.7199 12.2713 19.1497 12.1916C18.1881 10.9272 16.7922 10.0594 15.1014 10.1976C13.0692 10.4331 11.6545 12.3058 10.6598 13.8748C9.7197 15.4438 8.90914 17.127 8.63032 18.9466C8.49448 19.8586 8.48018 20.7812 8.54095 21.6967C8.5767 22.1306 8.64015 22.6016 8.69913 23.0302C8.77956 23.6057 8.74292 24.1954 8.58385 24.7541L8.49269 25.0631C7.87427 27.259 7.532 29.7976 8.69556 31.8934C9.62587 33.4287 10.8422 34.8162 12.2667 35.931L12.2836 35.9443C12.2836 35.9443 12.2899 35.9478 12.2908 35.9522C12.2926 35.9611 12.2783 35.9885 12.2836 35.9965L12.2917 36.0036C12.7332 36.371 13.1961 36.7199 13.6617 37.0511C14.1237 37.3787 14.5947 37.6939 15.0701 37.9994L15.7931 39.7003C16.3936 41.1134 16.7234 42.6249 16.7645 44.1576L16.7743 44.5383C16.5616 45.1147 16.2828 45.6672 15.9397 46.179C15.6993 46.5305 15.407 46.8484 15.0799 47.1273C14.7421 47.4195 14.3552 47.6515 13.978 47.8906C13.4052 48.2474 12.8064 48.5874 12.2372 48.969C12.054 48.9433 11.8761 48.8876 11.6974 48.8282C10.7331 48.4891 9.85643 47.8968 9.07805 47.238C8.27642 46.55 7.56774 45.7584 6.93592 44.9128C6.70267 44.5941 6.46584 44.2337 6.13072 44.0026C5.49174 43.536 4.52479 43.482 3.89475 43.9964C3.60163 44.2346 3.38894 44.5277 3.22897 44.85C2.99036 45.3299 2.86882 45.8727 2.77409 46.3906C2.69277 46.8776 2.66417 47.3735 2.67847 47.8755C2.73209 49.7774 3.40949 51.759 4.25669 53.5706C4.44883 53.9815 4.64991 54.3843 4.85545 54.7748H39.7328C39.6872 54.348 39.6157 53.9469 39.5245 53.5706C39.1233 51.9175 38.3306 50.7337 37.5826 49.9324C36.6058 48.8876 35.5557 48.3218 35.0097 48.0747C34.9936 47.9933 34.9748 47.9109 34.9561 47.8401L34.9391 47.7728L34.9203 47.709C34.78 47.2265 34.5781 46.7599 34.3654 46.3207C33.814 45.1891 33.167 44.1416 32.4806 43.0986C32.3573 42.9126 32.2232 42.7134 32.0883 42.516C32.6924 42.214 33.2545 41.828 33.797 41.4304C33.9927 41.2888 34.1893 41.1409 34.3797 40.9859C34.6129 40.7964 34.8372 40.5963 35.0446 40.3847C35.1366 40.2926 35.2269 40.1988 35.3144 40.1014C35.3949 40.0128 35.4726 39.9225 35.5495 39.8304L35.3162 39.3231L36.9338 36.109L34.6031 31.9766L35.0946 31.4657C35.0374 31.3559 34.9793 31.2391 34.9185 31.1133C34.3618 29.9623 35.0812 28.2179 35.4628 27.4405C35.5146 27.4653 35.5656 27.491 35.6129 27.5158C35.7121 27.5663 35.8229 27.607 35.9293 27.6477C37.5585 28.1985 38.4691 26.904 38.8587 25.5174C39.0026 25.0144 39.0965 24.5053 39.1456 23.9873C39.2457 23.7651 39.4334 23.3551 39.487 23.1949C39.5004 23.1612 39.5156 23.1232 39.5308 23.0824C39.5916 22.9248 39.6631 22.7291 39.7024 22.5954L39.8007 22.2917L39.882 21.9809C39.9356 21.7923 39.9821 21.548 40.0187 21.3487C40.0402 21.215 40.0598 21.0805 40.0741 20.9441C40.176 20.0126 40.0929 19.0404 39.6193 18.2152L39.6157 18.2108ZM36.4271 36.0966C36.3761 36.5163 36.1894 36.9519 35.9811 37.3344C35.7613 37.7638 35.5191 38.1809 35.2447 38.5775C35.1232 38.7529 34.9945 38.9202 34.8578 39.0796C34.5781 39.4072 34.2653 39.702 33.9221 39.9606C33.7648 40.0792 33.6013 40.1908 33.4315 40.2935C33.3895 40.3183 33.2215 40.4015 33.1714 40.429C32.6093 40.7114 31.9793 40.8478 31.3689 40.9939C31.023 41.0692 30.5583 41.2029 30.1115 41.3383C29.7299 41.3941 29.3403 41.3985 28.956 41.3791C28.3072 41.3481 27.6718 41.2126 27.0426 41.0568C26.0944 40.8195 25.1561 40.5379 24.232 40.2174C22.0953 39.4727 19.9996 38.5882 17.9879 37.5496L17.9817 37.5451C17.8155 37.4584 17.6492 37.3716 17.4839 37.2848C17.055 37.0564 16.6296 36.8208 16.2086 36.5773C16.2086 36.5773 16.2042 36.5871 16.1952 36.6048C16.0219 36.5127 15.8503 36.4189 15.6787 36.325C14.8279 35.8557 14.0022 35.3829 13.2184 34.8375L13.1943 34.8206C13.1863 34.8171 13.1621 34.8401 13.1541 34.8401C13.1496 34.8401 13.1487 34.8366 13.1451 34.8357C12.9923 34.7232 12.8404 34.6073 12.6929 34.4877C11.6196 33.6386 10.7117 32.6363 9.92971 31.5082C9.69915 31.1886 9.53024 30.8627 9.39798 30.4944C8.86088 28.9475 9.07179 27.2298 9.47305 25.6679C9.59101 25.2323 9.74651 24.7825 9.80013 24.3327C9.86537 23.8519 9.87073 23.3631 9.80907 22.8832C9.75545 22.4724 9.7054 22.027 9.68396 21.617C9.6491 20.798 9.69736 19.9551 9.85733 19.1546C10.0521 18.1576 10.4606 17.1907 10.9467 16.2814C11.4364 15.3605 11.9798 14.4521 12.6241 13.6357C13.2989 12.8007 14.1711 11.9065 15.2605 11.771C16.3641 11.6762 17.3713 12.2456 18.1649 12.9911C19.0997 13.858 19.8486 14.9063 20.5814 15.96C20.5152 15.0639 20.2507 14.1236 19.8191 13.2674C20.2293 13.3116 20.6377 13.3444 21.0515 13.3559C21.3902 13.3657 21.7315 13.3612 22.0801 13.3373C22.1507 13.332 22.2231 13.3249 22.2945 13.3161L22.0586 14.607H25.3098C25.123 14.7629 24.9479 14.9276 24.7852 15.1011C24.7718 15.1055 24.7584 15.11 24.745 15.1153C24.745 15.1153 24.7486 15.1224 24.7548 15.1339C24.5582 15.3473 24.3822 15.573 24.2302 15.8112C23.9344 16.277 23.7334 16.7896 23.661 17.3475C23.5805 18.0425 23.7387 18.7526 24.098 19.3485C24.2106 19.5398 24.3446 19.7151 24.4948 19.8754C24.4599 19.237 24.4367 18.6783 24.5654 18.0868C24.6967 17.4413 25.0068 16.8853 25.4206 16.4062C25.4278 16.4204 25.4322 16.4284 25.4322 16.4284C25.9747 16.0122 26.6056 15.7466 27.3054 15.836C28.0453 15.9352 28.7451 16.3983 29.2348 16.9782C29.0543 16.5497 28.7987 16.1486 28.4716 15.8121C28.2053 15.5367 27.8907 15.303 27.5306 15.1312C27.426 15.0807 27.3188 15.0382 27.2089 15.0019C27.4466 14.8638 27.6896 14.7319 27.9372 14.607H34.9534C34.9641 14.6513 34.9668 14.6982 34.9579 14.7487C34.9534 14.7744 34.9507 14.7974 34.9489 14.8178C34.9293 14.8833 34.9132 14.9515 34.9007 15.0223C34.8515 15.2941 34.8524 15.5571 34.8873 15.8121C34.9043 15.9334 34.9284 16.0538 34.9579 16.1707C34.9909 16.0503 35.0249 15.9299 35.0624 15.8121C35.0794 15.7563 35.0973 15.6997 35.1161 15.6448C35.2698 15.2277 35.5254 14.7611 35.9829 14.6345C36.024 14.623 36.0651 14.6141 36.1062 14.607H36.6121C36.6818 14.6159 36.7515 14.6283 36.8212 14.6416C37.1509 14.762 37.4664 14.9152 37.7434 15.1418C37.9856 15.3295 38.1912 15.5571 38.3529 15.8112C38.7426 16.4213 38.8802 17.181 38.6791 17.8947L38.6604 17.9584L38.6514 17.9903C38.6032 18.1417 38.5996 18.3064 38.6487 18.4604C38.6845 18.588 38.7703 18.6889 38.8302 18.8067C39.1537 19.4415 39.201 20.203 39.1206 20.9122L39.0965 21.1221L39.084 21.192L39.033 21.4727C38.9982 21.648 38.9553 21.8251 38.9061 22.0013L37.831 22.9859C34.0839 20.7254 32.0499 22.0004 27.3438 25.0596C22.3285 28.3198 20.0604 26.8632 20.0604 26.8632C13.3516 24.1733 11.499 26.9898 11.499 26.9898C15.9397 24.7426 18.5912 30.3766 19.5814 32.5601C20.5716 34.7436 22.0702 37.6036 26.737 38.6369C29.2938 39.2027 31.5056 38.8565 33.141 38.2127C33.5432 38.0551 33.9105 37.8789 34.2385 37.6939C34.3689 37.6204 34.4941 37.5451 34.612 37.4699C35.4458 36.9368 36.0678 36.201 36.4351 35.6919C36.4467 35.8221 36.444 35.9558 36.4253 36.0921L36.4271 36.0966ZM28.8085 35.8159C28.1981 35.8097 27.6003 36.178 27.6003 36.178C27.3778 36.0576 26.7951 35.807 26.7951 35.807C24.4125 34.656 23.8299 36.6863 23.8299 36.6863C21.3464 35.7822 20.089 32.4123 20.089 32.4123C23.9469 30.8229 26.2562 33.9494 26.2562 33.9494C26.149 32.6354 25.3697 31.873 25.3697 31.873C28.3947 31.9899 30.3608 33.357 31.4368 34.4098C32.1285 35.0872 32.452 35.6344 32.452 35.6344C32.2715 35.5901 32.1044 35.5653 31.9498 35.5564C30.7263 35.4856 30.2831 36.402 30.2831 36.402C30.2831 36.402 29.7612 35.8247 28.8067 35.8159H28.8085ZM34.7246 36.3799C34.7246 36.3799 34.8819 36.8678 33.9963 37.1546C33.8676 37.1963 33.7175 37.2335 33.5405 37.2644C33.4091 37.2875 33.2769 37.2202 33.2358 37.1006C33.2358 37.0989 33.1705 36.9413 33.1705 36.9413C33.0704 36.6411 32.9355 35.9221 33.2733 35.5405C33.3421 35.4626 33.4306 35.3988 33.5432 35.3554C34.2823 35.0703 34.6326 36.0266 34.7255 36.3799H34.7246ZM37.9436 24.6009C37.9874 24.8338 38.2046 26.3134 36.713 26.8606C36.2975 27.0129 36.0151 26.8287 35.8238 26.4692C35.6451 26.1319 35.5459 25.6404 35.495 25.1295C35.4181 24.3645 35.4485 23.557 35.4717 23.1612C35.4789 23.0364 35.6058 22.954 35.7237 22.9992C36.2993 23.2188 36.7354 23.464 37.0625 23.6943C37.6246 24.09 37.8614 24.4407 37.9213 24.5407C37.9213 24.5425 37.9231 24.5434 37.924 24.5452C37.9338 24.562 37.94 24.5806 37.9436 24.6001V24.6009ZM37.5343 18.3622C38.0214 18.085 38.546 16.5692 37.8051 15.813C37.6943 15.6997 37.5549 15.6031 37.3824 15.5314C36.789 15.2826 36.411 15.4987 36.1742 15.813C36.1205 15.8838 36.0741 15.96 36.0347 16.0361C35.8247 16.4408 35.7747 16.9056 35.8578 17.3528C36.091 18.6057 37.0464 18.6402 37.5352 18.3613L37.5343 18.3622ZM37.8051 15.813C37.6943 15.6997 37.5549 15.6031 37.3824 15.5314C36.789 15.2826 36.411 15.4987 36.1742 15.813C36.1205 15.8838 36.0741 15.96 36.0347 16.0361C35.8247 16.4408 35.7747 16.9056 35.8578 17.3528C36.091 18.6057 37.0464 18.6402 37.5352 18.3613C38.0223 18.0841 38.5469 16.5683 37.806 15.8121L37.8051 15.813ZM37.8051 15.813C37.6943 15.6997 37.5549 15.6031 37.3824 15.5314C36.789 15.2826 36.411 15.4987 36.1742 15.813C36.1205 15.8838 36.0741 15.96 36.0347 16.0361C35.8247 16.4408 35.7747 16.9056 35.8578 17.3528C36.091 18.6057 37.0464 18.6402 37.5352 18.3613C38.0223 18.0841 38.5469 16.5683 37.806 15.8121L37.8051 15.813ZM37.8051 15.813C37.6943 15.6997 37.5549 15.6031 37.3824 15.5314C36.789 15.2826 36.411 15.4987 36.1742 15.813C36.1205 15.8838 36.0741 15.96 36.0347 16.0361C35.8247 16.4408 35.7747 16.9056 35.8578 17.3528C36.091 18.6057 37.0464 18.6402 37.5352 18.3613C38.0223 18.0841 38.5469 16.5683 37.806 15.8121L37.8051 15.813ZM37.8051 15.813C37.6943 15.6997 37.5549 15.6031 37.3824 15.5314C36.789 15.2826 36.411 15.4987 36.1742 15.813C36.1205 15.8838 36.0741 15.96 36.0347 16.0361C35.8247 16.4408 35.7747 16.9056 35.8578 17.3528C36.091 18.6057 37.0464 18.6402 37.5352 18.3613C38.0223 18.0841 38.5469 16.5683 37.806 15.8121L37.8051 15.813ZM37.8051 15.813C37.6943 15.6997 37.5549 15.6031 37.3824 15.5314C36.789 15.2826 36.411 15.4987 36.1742 15.813C36.1205 15.8838 36.0741 15.96 36.0347 16.0361C35.8247 16.4408 35.7747 16.9056 35.8578 17.3528C36.091 18.6057 37.0464 18.6402 37.5352 18.3613C38.0223 18.0841 38.5469 16.5683 37.806 15.8121L37.8051 15.813ZM37.8051 15.813C37.6943 15.6997 37.5549 15.6031 37.3824 15.5314C36.789 15.2826 36.411 15.4987 36.1742 15.813C36.1205 15.8838 36.0741 15.96 36.0347 16.0361C35.8247 16.4408 35.7747 16.9056 35.8578 17.3528C36.091 18.6057 37.0464 18.6402 37.5352 18.3613C38.0223 18.0841 38.5469 16.5683 37.806 15.8121L37.8051 15.813ZM37.8051 15.813C37.6943 15.6997 37.5549 15.6031 37.3824 15.5314C36.789 15.2826 36.411 15.4987 36.1742 15.813C36.1205 15.8838 36.0741 15.96 36.0347 16.0361C35.8247 16.4408 35.7747 16.9056 35.8578 17.3528C36.091 18.6057 37.0464 18.6402 37.5352 18.3613C38.0223 18.0841 38.5469 16.5683 37.806 15.8121L37.8051 15.813ZM37.8051 15.813C37.6943 15.6997 37.5549 15.6031 37.3824 15.5314C36.789 15.2826 36.411 15.4987 36.1742 15.813C36.1205 15.8838 36.0741 15.96 36.0347 16.0361C35.8247 16.4408 35.7747 16.9056 35.8578 17.3528C36.091 18.6057 37.0464 18.6402 37.5352 18.3613C38.0223 18.0841 38.5469 16.5683 37.806 15.8121L37.8051 15.813Z" fill="#CCFF00"/>
<path d="M21.3446 54.7695L21.3383 54.7332L19.9102 53.1846L19.1881 52.6383C19.265 52.5409 19.3401 52.4435 19.4125 52.3452C19.4402 52.308 19.4679 52.2708 19.4947 52.2327C22.8763 47.555 21.4545 41.9643 20.8236 40.0801C20.6824 39.6595 20.5814 39.424 20.5814 39.424L30.847 42.539L31.0606 42.6036L31.065 42.6125L31.1955 42.8772L34.4744 49.5047L34.696 49.9536L34.8846 51.1658L34.9677 51.705L35.444 54.7695H21.3446Z" fill="white"/>
<path d="M20.038 19.4619C20.038 20.744 19.5242 21.5949 18.6046 22.5317C17.8566 23.2932 16.861 23.7748 15.7958 23.8501C12.7814 24.0626 11.8886 21.0229 11.8886 21.0229C11.6429 18.595 12.2765 17.0376 13.0826 16.0494C14.3471 14.5017 16.4187 14.4441 18.0827 15.5518C19.4411 16.4567 20.0032 18.0585 20.0371 19.3273C20.038 19.3724 20.0389 19.4176 20.0389 19.4619H20.038Z" fill="#343434"/>
<path d="M38.1367 13.9695L37.848 14.5769L37.8328 14.6088L37.7122 14.8612C37.5897 14.8372 37.3878 14.777 37.2635 14.746C37.1197 14.7115 36.9713 14.6734 36.8221 14.6433C36.7524 14.6301 36.6827 14.6177 36.6129 14.6088C36.4432 14.5867 36.2734 14.5805 36.1071 14.6088C36.066 14.6159 36.0249 14.6247 35.9838 14.6363C35.5262 14.7629 35.2707 15.2295 35.1169 15.6465C35.0982 15.7014 35.0803 15.7572 35.0633 15.8139C35.0258 15.9325 34.9918 16.0529 34.9588 16.1725C34.9293 16.0547 34.9051 15.9352 34.8882 15.8139C34.8533 15.5598 34.8524 15.2959 34.9016 15.0241C34.9141 14.9532 34.9302 14.8859 34.9498 14.8204C34.9713 14.746 34.9981 14.6761 35.0276 14.6088C35.0892 14.4716 35.1679 14.3485 35.2599 14.2405C35.3842 14.0935 35.5334 13.9731 35.6996 13.8783C35.7747 13.8349 35.8533 13.7977 35.9347 13.765C36.4244 13.5693 37.0151 13.5604 37.5504 13.7207C37.7577 13.7809 37.9499 13.8588 38.1358 13.9704L38.1367 13.9695Z" fill="black"/>
<path d="M27.2428 19.9923C26.6637 19.9923 25.3214 19.3565 25.4304 18.0779C25.5145 17.088 26.3465 16.6338 27.342 16.7516C27.8407 16.81 28.3027 16.98 28.6003 17.7238C29.1615 19.1263 27.9899 19.9923 27.2428 19.9923Z" fill="#343434"/>
<path d="M37.5343 18.3622C37.0455 18.6411 36.0902 18.6065 35.8569 17.3537C35.7738 16.9065 35.8229 16.4408 36.0338 16.037C36.0732 15.96 36.1205 15.8847 36.1733 15.8139C36.4101 15.4995 36.7881 15.2835 37.3815 15.5323C37.554 15.6049 37.6934 15.7005 37.8042 15.8139C38.5451 16.5692 38.0205 18.0859 37.5334 18.363L37.5343 18.3622Z" fill="#343434"/>
<path d="M35.9579 13.7676C35.9579 13.7676 35.9257 13.8181 35.8721 13.8987C35.8042 14.0014 35.7032 14.151 35.5924 14.306C35.5182 14.4096 35.4405 14.5141 35.3654 14.6088C35.1348 14.8983 34.9293 15.0905 34.9507 14.8204C34.9516 14.7992 34.9552 14.777 34.9597 14.7505C34.9686 14.7 34.9659 14.6531 34.9552 14.6088C34.8882 14.3299 34.469 14.1661 34.0267 14.0705C33.4842 13.9527 32.9078 13.9376 32.9078 13.9376L33.3144 13.6003L33.4163 13.5162L35.9373 13.7659L35.9597 13.7685L35.9579 13.7676Z" fill="black"/>
<path d="M21.4697 23.0798C21.4697 23.4614 21.1578 23.7713 20.7726 23.7713C20.3875 23.7713 20.0747 23.4614 20.0747 23.0798C20.0747 22.6981 20.3875 22.3882 20.7726 22.3882C21.1578 22.3882 21.4697 22.6981 21.4697 23.0798Z" fill="#343434"/>
<path d="M22.8558 23.2542C22.8558 23.5003 22.6547 23.6996 22.4063 23.6996C22.1578 23.6996 21.9558 23.5003 21.9558 23.2542C21.9558 23.008 22.1569 22.8088 22.4063 22.8088C22.6556 22.8088 22.8558 23.008 22.8558 23.2542Z" fill="#343434"/>
<path d="M22.6082 21.7268C22.6082 22.035 22.3553 22.2855 22.0443 22.2855C21.7333 22.2855 21.4813 22.035 21.4813 21.7268C21.4813 21.4187 21.7333 21.169 22.0443 21.169C22.3553 21.169 22.6082 21.4187 22.6082 21.7268Z" fill="#343434"/>
<path d="M17.2498 17.9867C16.9575 17.9867 16.7216 18.2214 16.7216 18.51C16.7216 18.7987 16.9584 19.0333 17.2498 19.0333C17.5411 19.0333 17.7779 18.7987 17.7779 18.51C17.7779 18.2214 17.5411 17.9867 17.2498 17.9867Z" fill="white"/>
<path d="M16.1549 20.4464C16.3578 20.3631 16.4542 20.1326 16.3701 19.9316C16.2861 19.7306 16.0534 19.6351 15.8505 19.7184C15.6476 19.8016 15.5512 20.0321 15.6353 20.2332C15.7193 20.4342 15.952 20.5297 16.1549 20.4464Z" fill="white"/>
<path d="M15.4079 18.9404C16.2203 16.8941 18.3195 17.5316 18.3195 17.5316C18.3195 17.5316 17.181 15.2746 15.0558 16.6152C14.3811 17.0411 13.8726 17.6813 13.5884 18.4215C12.9566 20.0693 12.2229 23.3844 16.8298 22.877C15.4419 22.6202 14.5956 20.9866 15.4079 18.9404Z" fill="white"/>
<path d="M19.189 48.6272C16.7332 48.9425 14.609 50.9161 14.4231 53.4148C14.3811 53.8655 14.3963 54.3206 14.4553 54.7695H15.4195C15.3766 54.549 15.3463 54.3277 15.3284 54.1045C15.0987 51.442 17.0103 49.7916 19.1899 48.6272H19.189Z" fill="black"/>
<path d="M39.6157 18.2108C39.7435 17.7999 39.8051 17.2253 39.7551 16.7622C39.7283 16.439 39.6595 16.1202 39.5522 15.8139C39.5156 15.7067 39.4736 15.6023 39.428 15.4987C39.2868 15.1808 39.1054 14.8815 38.8882 14.6097C38.487 14.1059 37.9642 13.6986 37.3574 13.4515C36.5504 13.1177 35.6755 12.946 34.8149 12.837C33.7621 12.7122 32.7022 12.6954 31.6459 12.7441C31.1839 12.7689 30.7228 12.8043 30.2634 12.8539C30.2616 12.8503 30.2589 12.8459 30.2572 12.8432C29.3411 11.5186 27.779 9.67427 25.9997 9.72385C25.4885 9.73625 24.98 9.94256 24.5949 10.2666C24.2383 10.557 23.9425 10.9493 23.6851 11.2937C23.6011 11.4026 23.5189 11.5151 23.4322 11.6231C23.2731 11.8232 23.1024 12.0118 22.8915 12.1464C22.7789 12.2066 22.6404 12.2535 22.4822 12.289C22.1355 12.366 21.694 12.3881 21.2302 12.3793C20.5027 12.3651 19.7181 12.273 19.1479 12.1933C18.1863 10.9289 16.7904 10.0612 15.0996 10.1993C13.0674 10.4349 11.6527 12.3076 10.6581 13.8765C9.71791 15.4455 8.90735 17.1288 8.62853 18.9483C8.49269 19.8603 8.47839 20.7829 8.53916 21.6985C8.57491 22.1323 8.63836 22.6034 8.69734 23.032C8.77777 23.6075 8.74113 24.1972 8.58206 24.7559L8.4909 25.0649C7.87248 27.2608 7.53021 29.7993 8.69377 31.8952C9.62408 33.4305 10.8404 34.818 12.2649 35.9327L12.2819 35.946C12.2819 35.946 12.2881 35.9496 12.289 35.954C12.2908 35.9629 12.2765 35.9903 12.2819 35.9983L12.2899 36.0054C12.7314 36.3728 13.1943 36.7217 13.6599 37.0528C14.1219 37.3804 14.5929 37.6956 15.0683 38.0011L15.7913 39.702C16.3919 41.1152 16.7216 42.6266 16.7627 44.1593L16.7726 44.5401C16.5599 45.1165 16.281 45.669 15.9379 46.1808C15.6975 46.5323 15.4052 46.8502 15.0782 47.1291C14.7403 47.4213 14.3534 47.6533 13.9763 47.8923C13.4034 48.2492 12.8047 48.5892 12.2354 48.9708C12.0522 48.9451 11.8743 48.8893 11.6956 48.83C10.7313 48.4909 9.85465 47.8985 9.07626 47.2398C8.27464 46.5518 7.56595 45.7602 6.93413 44.9146C6.70088 44.5959 6.46406 44.2355 6.12893 44.0044C5.48996 43.5378 4.523 43.4837 3.89297 43.9982C3.59984 44.2364 3.38715 44.5294 3.22718 44.8517C2.98857 45.3316 2.86703 45.8744 2.7723 46.3924C2.69098 46.8794 2.66238 47.3752 2.67668 47.8773C2.7303 49.7792 3.4077 51.7608 4.2549 53.5724C4.44704 53.9832 4.64812 54.3861 4.85366 54.7766H7.21742C6.90017 54.4021 6.58292 53.9983 6.27639 53.5724C4.78038 51.4934 3.53639 48.8849 3.79287 46.5314C3.8456 46.0568 3.93854 45.5565 4.15034 45.1351C4.31299 44.8172 4.53552 44.564 4.88852 44.5224C5.13964 44.4949 5.40863 44.5595 5.61864 44.7092C5.8653 44.873 6.05565 45.1909 6.2317 45.4264C6.46942 45.7443 6.71071 46.0586 6.96362 46.3667C6.43993 46.7377 5.97879 47.1999 5.65618 47.7498C5.61239 47.8303 5.56949 47.918 5.5266 47.9995C5.50336 48.057 5.44617 48.196 5.42204 48.2562L5.54358 48.1181L5.60435 48.0508L5.67048 47.988C5.74376 47.9145 5.85815 47.8171 5.94126 47.7542C6.40776 47.4018 6.95558 47.153 7.52663 47.0246C7.98955 47.5435 8.48107 48.0402 9.00566 48.4997C8.88323 48.5918 8.76437 48.6883 8.64908 48.7893C7.91091 49.4339 7.30768 50.3051 7.18972 51.2871C7.42475 50.7124 7.82154 50.2352 8.31306 49.866C8.75186 49.5383 9.24516 49.2789 9.76885 49.1222C10.0003 49.2966 10.2389 49.464 10.4829 49.6216C10.6554 49.7305 10.8314 49.8385 11.0128 49.9403C11.0066 49.9465 11.0003 49.9527 10.9941 49.958C9.89575 51.0312 8.99494 52.2956 8.13254 53.5733C7.86176 53.9753 7.59366 54.379 7.32556 54.7775H8.84122C9.07536 54.3711 9.31487 53.9682 9.56063 53.5733C9.59548 53.5166 9.63123 53.4591 9.66698 53.4024C10.1522 52.6329 10.6732 51.8653 11.264 51.1782C11.8466 50.4875 12.524 49.9403 13.3024 49.4604C14.1014 48.9451 14.9781 48.4811 15.7198 47.8693C16.8861 46.8962 17.5715 45.4831 18.0407 44.0699C18.5295 42.5416 18.6922 40.9116 18.576 39.3063C19.1908 39.5232 19.8075 39.7384 20.425 39.95C20.6645 40.684 21.1426 42.3362 21.307 44.2877C21.4366 45.8231 21.3499 47.2398 21.0497 48.4989C20.7038 49.9474 20.0711 51.1906 19.1685 52.1991C18.4714 51.7812 17.7377 51.4659 17.0237 51.2853C17.9522 52.0016 18.9066 52.7365 19.736 53.5715C20.1113 53.9496 20.4616 54.3489 20.7726 54.7757H21.9585C21.6681 54.3498 21.3258 53.946 20.9451 53.5715C20.5662 53.1979 20.1488 52.8543 19.7109 52.5497C21.467 50.538 22.2391 47.6692 21.9451 44.2187C21.8012 42.5292 21.4393 41.0816 21.1784 40.2059C22.1024 40.5175 23.0265 40.8177 23.9478 41.0993C24.9041 41.3915 25.8666 41.6606 26.8389 41.9006C27.1731 41.9758 27.9899 42.1644 28.3099 42.2432C28.8818 42.3902 29.4511 42.5354 30.0185 42.6948C30.3617 43.1694 30.7058 43.652 30.9918 44.0805C31.3519 44.6224 31.7156 45.1705 32.0579 45.7292C31.998 45.7522 31.9382 45.7752 31.8774 45.7974C30.2044 46.4066 28.3822 46.6926 26.6003 46.4801C26.2964 46.4473 25.9961 46.3897 25.695 46.3269C27.4242 47.0954 29.3572 47.3115 31.2402 47.1627C31.746 47.1193 32.2545 47.0565 32.755 46.9529C32.9042 47.2415 33.0436 47.5328 33.1705 47.8295C33.2447 48.0119 33.3064 48.1774 33.3555 48.3616C33.3645 48.3908 33.368 48.4138 33.3743 48.4395L33.419 48.6379L33.4333 48.6768C33.6638 49.3064 33.864 49.9483 34.0383 50.5964C33.9882 50.6301 33.9373 50.6629 33.8855 50.6956C32.007 51.8794 29.7156 52.4532 27.4912 52.2053C26.6655 52.1105 25.8442 51.9087 25.0515 51.6103C26.5449 52.447 28.2839 52.9057 30.0105 52.8941C31.4922 52.8809 33.0034 52.5825 34.3743 51.991C34.4181 52.192 34.4583 52.393 34.4976 52.5949C34.5593 52.9181 34.6156 53.2439 34.6647 53.5697C34.7255 53.97 34.7782 54.3719 34.8194 54.7739H36.1965C36.1831 54.3719 36.159 53.97 36.1232 53.5697C36.0231 52.4311 35.839 51.3004 35.5834 50.1856C35.881 50.4087 36.1974 50.6841 36.5021 51.0179C37.176 51.7546 37.6568 52.6073 37.9427 53.5706C38.0571 53.9549 38.1402 54.356 38.1921 54.7748H39.7354C39.6899 54.348 39.6184 53.9469 39.5272 53.5706C39.126 51.9175 38.3333 50.7337 37.5853 49.9324C36.6085 48.8876 35.5584 48.3218 35.0124 48.0747C34.9963 47.9933 34.9775 47.9109 34.9588 47.8401L34.9418 47.7728L34.923 47.709C34.7827 47.2265 34.5807 46.7599 34.368 46.3207C33.8167 45.1891 33.1696 44.1416 32.4833 43.0986C32.36 42.9126 32.2259 42.7134 32.091 42.516C32.6951 42.214 33.2572 41.828 33.7997 41.4304C33.9954 41.2887 34.192 41.1409 34.3824 40.9859C34.6156 40.7964 34.8399 40.5963 35.0472 40.3847C35.1393 40.2926 35.2295 40.1988 35.3171 40.1014C35.3976 40.0128 35.4753 39.9225 35.5522 39.8304L37.117 37.322C37.4718 36.557 37.5558 35.7149 37.2939 34.9614V34.9605C37.2725 34.4213 36.9356 34.0326 36.6147 33.6147C36.1456 33.0055 35.7309 32.6876 35.0982 31.4657C35.041 31.3559 34.9829 31.2391 34.9221 31.1133C34.3654 29.9623 35.0848 28.2179 35.4664 27.4405C35.5182 27.4653 35.5691 27.491 35.6165 27.5158C35.7157 27.5663 35.8265 27.607 35.9329 27.6477C37.562 28.1985 38.4727 26.904 38.8623 25.5174C39.0062 25.0144 39.1 24.5053 39.1492 23.9873C39.2493 23.7651 39.437 23.3551 39.4906 23.1949C39.504 23.1612 39.5192 23.1231 39.5344 23.0824C39.5951 22.9248 39.6666 22.7291 39.7059 22.5954L39.8042 22.2917L39.8856 21.9809C39.9392 21.7923 39.9857 21.548 40.0223 21.3487C40.0438 21.215 40.0634 21.0804 40.0777 20.9441C40.1796 20.0126 40.0965 19.0404 39.6228 18.2152L39.6157 18.2108ZM35.2447 38.5784C35.1232 38.7537 34.9945 38.9211 34.8578 39.0805C34.5781 39.4081 34.2653 39.7029 33.9221 39.9615C33.7648 40.0801 33.6013 40.1917 33.4315 40.2944C33.3895 40.3192 33.2215 40.4024 33.1714 40.4299C32.6093 40.7123 31.9793 40.8487 31.3689 40.9948C31.023 41.07 30.5583 41.2037 30.1115 41.3392C29.7299 41.395 29.3403 41.3994 28.956 41.3799C28.3072 41.349 27.6718 41.2135 27.0426 41.0577C26.0944 40.8204 25.1561 40.5388 24.232 40.2183C22.0953 39.4736 19.9996 38.5891 17.9879 37.5504L17.9817 37.546C17.8155 37.4592 17.6492 37.3725 17.4839 37.2857C17.055 37.0573 16.6296 36.8217 16.2086 36.5782C16.2086 36.5782 16.2042 36.588 16.1952 36.6057C16.0219 36.5136 15.8503 36.4197 15.6787 36.3259C14.8279 35.8566 14.0022 35.3838 13.2184 34.8383L13.1943 34.8215C13.1863 34.818 13.1621 34.841 13.1541 34.841C13.1496 34.841 13.1487 34.8375 13.1451 34.8366C12.9923 34.7241 12.8404 34.6081 12.6929 34.4886C11.6196 33.6395 10.7117 32.6371 9.92971 31.5091C9.69915 31.1895 9.53024 30.8636 9.39798 30.4953C8.86088 28.9484 9.07179 27.2307 9.47305 25.6688C9.59101 25.2331 9.74651 24.7833 9.80013 24.3335C9.86537 23.8527 9.87073 23.364 9.80907 22.8841C9.75545 22.4732 9.7054 22.0279 9.68396 21.6179C9.6491 20.7989 9.69736 19.9559 9.85733 19.1555C10.0521 18.1585 10.4606 17.1916 10.9467 16.2823C11.4364 15.3614 11.9798 14.453 12.6241 13.6366C13.2989 12.8016 14.1711 11.9073 15.2605 11.7719C16.3641 11.6771 17.3713 12.2465 18.1649 12.992C19.0997 13.8588 19.8486 14.9072 20.5814 15.9609C20.5153 15.0648 20.2507 14.1245 19.8191 13.2683C20.2293 13.3125 20.6377 13.3453 21.0515 13.3568C21.3902 13.3665 21.7315 13.3621 22.0801 13.3382C22.1507 13.3329 22.2231 13.3258 22.2945 13.317C22.3982 13.3054 22.5028 13.2904 22.6055 13.2709C22.8594 13.3329 23.123 13.3701 23.375 13.4383C23.7932 13.5436 24.1936 13.6738 24.5797 13.8836C24.333 13.5038 23.9541 13.2169 23.5662 12.9858C23.5385 12.9707 23.5108 12.9557 23.4831 12.9398C23.4974 12.93 23.5126 12.9203 23.5269 12.9097C23.9228 12.629 24.2043 12.2518 24.4849 11.879C24.7933 11.477 25.0596 11.0848 25.4939 10.8475C26.7495 10.2277 28.233 11.8055 29.0391 12.8477C27.7638 13.1257 26.3652 13.7251 25.3098 14.607C25.123 14.7629 24.9479 14.9276 24.7852 15.1011C24.7718 15.1055 24.7584 15.11 24.745 15.1153C24.745 15.1153 24.7486 15.1224 24.7548 15.1339C24.5582 15.3473 24.3822 15.573 24.2302 15.8112C23.9344 16.277 23.7334 16.7896 23.661 17.3475C23.5805 18.0425 23.7387 18.7526 24.098 19.3485C24.2106 19.5398 24.3446 19.7151 24.4948 19.8754C24.4599 19.237 24.4367 18.6783 24.5654 18.0868C24.6967 17.4413 25.0068 16.8853 25.4206 16.4062C25.4278 16.4204 25.4322 16.4284 25.4322 16.4284C25.9747 16.0122 26.6056 15.7466 27.3054 15.836C28.0453 15.9352 28.7451 16.3983 29.2348 16.9782C29.0543 16.5497 28.7987 16.1486 28.4716 15.8121C28.2053 15.5367 27.8907 15.303 27.5306 15.1312C27.426 15.0807 27.3188 15.0382 27.2089 15.0019C27.4466 14.8638 27.6896 14.7319 27.9372 14.607C28.325 14.4105 28.7227 14.2281 29.1222 14.0545C29.9649 13.9961 30.8121 13.9624 31.6575 13.9624C31.9641 13.9624 32.2706 13.9669 32.5762 13.9757C33.0579 13.9934 33.5432 14.0209 34.0249 14.0678C34.4395 14.1076 34.8524 14.1625 35.259 14.2378C35.3699 14.2582 35.4807 14.2803 35.5906 14.3033C35.7506 14.337 35.9087 14.3742 36.0651 14.4158C36.285 14.4733 36.5048 14.5335 36.7202 14.6061C36.7542 14.6177 36.7872 14.6292 36.8203 14.6407C37.15 14.7611 37.4655 14.9143 37.7425 15.1409C37.9847 15.3287 38.1903 15.5562 38.352 15.8103C38.7417 16.4204 38.8793 17.1801 38.6782 17.8938L38.6595 17.9575L38.6505 17.9894C38.6023 18.1408 38.5987 18.3055 38.6478 18.4596C38.6836 18.5871 38.7694 18.688 38.8293 18.8058C39.1528 19.4406 39.2001 20.2021 39.1197 20.9113L39.0956 21.1212L39.0831 21.1911L39.0321 21.4718C38.9973 21.6471 38.9544 21.8242 38.9052 22.0004C38.8507 22.1979 38.7881 22.3936 38.7229 22.583C38.6693 22.7247 38.6273 22.8336 38.5665 22.993C38.5495 23.0381 38.5326 23.0842 38.512 23.1285L38.4119 23.3542C38.2135 23.2223 38.0196 23.0992 37.8301 22.9841C34.083 20.7236 32.049 21.9986 27.3429 25.0578C22.3276 28.318 20.0595 26.8615 20.0595 26.8615C13.3507 24.1715 11.4981 26.9881 11.4981 26.9881C15.9388 24.7408 18.5903 30.3749 19.5805 32.5583C20.5707 34.7418 22.0693 37.6018 26.7361 38.6351C29.2929 39.2009 31.5047 38.8547 33.1401 38.211C33.5423 38.0534 33.9096 37.8772 34.2376 37.6921C34.368 37.6186 34.4932 37.5434 34.6111 37.4681C35.4449 36.9351 36.0669 36.1993 36.4342 35.6901C36.4458 35.8203 36.4431 35.954 36.4244 36.0904C36.3734 36.5101 36.1867 36.9457 35.9784 37.3282C35.7586 37.7576 35.5164 38.1747 35.2421 38.5713L35.2447 38.5784ZM33.9963 37.1546C33.8676 37.1963 33.7175 37.2335 33.5405 37.2644C33.4091 37.2875 33.2769 37.2202 33.2358 37.1006C33.2358 37.0989 33.1705 36.9413 33.1705 36.9413C33.0704 36.6411 32.9355 35.9221 33.2733 35.5405C33.3421 35.4626 33.4306 35.3988 33.5432 35.3554C34.2823 35.0703 34.6326 36.0266 34.7255 36.3799C34.7255 36.3799 34.8828 36.8678 33.9972 37.1546H33.9963ZM28.8085 35.8159C28.1981 35.8097 27.6003 36.178 27.6003 36.178C27.3778 36.0576 26.7951 35.807 26.7951 35.807C24.4125 34.656 23.8299 36.6863 23.8299 36.6863C21.3464 35.7822 20.089 32.4123 20.089 32.4123C23.9469 30.8229 26.2562 33.9494 26.2562 33.9494C26.149 32.6354 25.3697 31.873 25.3697 31.873C28.3947 31.9899 30.3608 33.357 31.4368 34.4098C32.1285 35.0872 32.452 35.6344 32.452 35.6344C32.2715 35.5901 32.1044 35.5653 31.9498 35.5564C30.7263 35.4856 30.2831 36.402 30.2831 36.402C30.2831 36.402 29.7612 35.8247 28.8067 35.8159H28.8085ZM37.9436 24.6009C37.9874 24.8338 38.2046 26.3134 36.713 26.8606C36.2975 27.0129 36.0151 26.8287 35.8238 26.4692C35.6451 26.1319 35.5459 25.6404 35.495 25.1295C35.4181 24.3645 35.4485 23.557 35.4717 23.1612C35.4789 23.0364 35.6058 22.954 35.7237 22.9992C36.2993 23.2188 36.7354 23.464 37.0625 23.6943C37.6246 24.09 37.8614 24.4407 37.9213 24.5407C37.9213 24.5425 37.9231 24.5434 37.924 24.5452C37.9338 24.562 37.94 24.5806 37.9436 24.6001V24.6009Z" fill="#343434"/>
<path d="M25.9121 36.0452C24.8299 35.7778 24.5117 36.4516 24.417 36.8554C24.417 36.8571 24.417 36.8589 24.4161 36.8598C24.3866 36.9953 24.5171 37.1511 24.7119 37.2281C26.7709 38.0436 26.8192 37.6443 26.8192 37.6443C26.947 37.2689 27.1177 36.3427 25.913 36.0443L25.9121 36.0452Z" fill="white"/>
<path d="M28.8657 36.4038C27.771 36.3684 27.586 37.1786 27.5681 37.6399C27.5681 37.6416 27.5681 37.6434 27.5681 37.6452C27.5645 37.7992 27.7182 37.9383 27.9202 37.9763C30.057 38.3757 30.032 37.9303 30.032 37.9303C30.0874 37.4911 30.0847 36.4428 28.8666 36.4038H28.8657Z" fill="white"/>
<path d="M31.5244 36.1355C30.6825 36.3285 30.7094 37.1573 30.7916 37.6115C30.7916 37.6133 30.8416 37.8125 30.8425 37.8143C30.872 37.9657 31.0177 38.0693 31.1803 38.064C32.8926 38.0091 32.7308 37.3822 32.7308 37.3822C32.6817 36.943 32.4618 35.9203 31.5244 36.1355Z" fill="white"/>
<path d="M36.2689 35.1828C36.1295 34.9234 35.6737 34.2407 35.1491 34.6011C34.6782 34.9251 34.9954 35.6512 35.1581 35.9115C35.1581 35.9115 35.2385 36.0231 35.2394 36.024C35.2948 36.1098 35.411 36.1382 35.5093 36.0957C36.5513 35.645 36.268 35.1828 36.268 35.1828H36.2689Z" fill="white"/>
<path d="M29.5896 24.4504C28.023 25.049 26.5583 26.2142 26.4626 26.3718C26.4519 26.3904 26.4439 26.4099 26.4403 26.4311C26.3965 26.664 27.2026 28.4907 28.5252 28.4384C30.0069 28.38 29.8961 25.5519 29.8416 24.6116C29.8345 24.4867 29.7076 24.4044 29.5896 24.4495V24.4504Z" fill="white"/>
<path d="M35.0097 23.0541C34.9972 22.8929 34.8623 22.7681 34.6996 22.7548C32.9838 22.6185 33.049 23.0807 33.049 23.0807C33.049 23.5455 33.1571 24.6399 34.1169 24.5204C34.9784 24.4132 35.0428 23.5437 35.0106 23.0594C35.0106 23.0576 35.0106 23.0559 35.0106 23.0541H35.0097Z" fill="white"/>
<path d="M32.4797 23.0284C31.746 23.1276 30.8041 23.6889 30.4279 23.9289C30.3099 24.0042 30.2482 24.1432 30.2768 24.2795C30.3385 24.5726 30.595 25.0268 31.5914 25.0136C32.7711 24.9976 32.7639 23.7164 32.7148 23.2126C32.7031 23.0957 32.5968 23.0125 32.4788 23.0284H32.4797Z" fill="white"/>
<path d="M25.602 26.6994C25.1597 26.9615 24.6574 27.1112 24.4313 27.1705C24.3589 27.1891 24.3134 27.2599 24.3268 27.3334C24.375 27.5928 24.5627 28.1374 25.2973 28.1152C26.0453 28.0931 25.9103 27.1908 25.812 26.7889C25.7897 26.6968 25.6834 26.6507 25.6002 26.6994H25.602Z" fill="white"/>
<path d="M32.4529 35.6344C32.2724 35.5901 32.1053 35.5653 31.9507 35.5564C30.7272 35.4856 30.284 36.402 30.284 36.402C30.284 36.402 29.7621 35.8247 28.8076 35.8159C28.1973 35.8097 27.5994 36.178 27.5994 36.178C27.3769 36.0576 26.7942 35.807 26.7942 35.807C24.4117 34.656 23.829 36.6863 23.829 36.6863C21.3455 35.7822 20.0881 32.4123 20.0881 32.4123C23.9461 30.8229 26.2553 33.9494 26.2553 33.9494C26.1481 32.6354 25.3688 31.873 25.3688 31.873C28.3939 31.9899 30.3599 33.357 31.4359 34.4098C32.1276 35.0872 32.4511 35.6344 32.4511 35.6344H32.4529Z" fill="#FF5610"/>
<path d="M28.4698 15.8139C28.2035 15.5385 27.8889 15.3048 27.5288 15.133C27.4242 15.0825 27.317 15.04 27.2071 15.0037C27.4448 14.8656 27.6879 14.7336 27.9354 14.6088H25.308C25.1212 14.7646 24.9461 14.9293 24.7834 15.1029C24.77 15.1073 24.7566 15.1117 24.7432 15.117C24.7432 15.117 24.7468 15.1241 24.753 15.1356C24.5564 15.349 24.3804 15.5748 24.2285 15.813H28.4698V15.8139ZM37.3815 15.5323C36.7881 15.2835 36.4101 15.4995 36.1733 15.8139H37.8051C37.6943 15.7005 37.5549 15.604 37.3824 15.5323L37.3815 15.5323ZM34.9525 14.6097C34.9632 14.654 34.9659 14.7009 34.957 14.7514C34.9525 14.777 34.9498 14.8001 34.948 14.8204C34.9284 14.8859 34.9123 14.9541 34.8998 15.025C34.8506 15.2968 34.8515 15.5598 34.8864 15.8148H35.0615C35.0785 15.759 35.0964 15.7023 35.1152 15.6474C35.2689 15.2304 35.5245 14.7638 35.982 14.6371C36.0231 14.6256 36.0642 14.6168 36.1053 14.6097H34.9516H34.9525ZM33.5396 37.2653C33.4082 37.2883 33.276 37.2211 33.2349 37.1015C33.2349 37.0998 33.1696 36.9421 33.1696 36.9421C33.0695 36.642 32.9346 35.923 33.2724 35.5414L31.1338 30.7653L35.8229 26.471C35.6442 26.1336 35.545 25.6422 35.4941 25.1313L29.6691 30.4661L31.4359 34.4125C32.1276 35.0898 32.4511 35.637 32.4511 35.637C32.2706 35.5927 32.1035 35.5679 31.9489 35.5591L33.1401 38.2198C33.5423 38.0622 33.9096 37.886 34.2376 37.701L33.9936 37.1573C33.8649 37.1989 33.7148 37.2361 33.5378 37.2671L33.5396 37.2653Z" fill="#343434"/>
<path d="M33.9954 37.1546C33.8667 37.1963 33.7166 37.2335 33.5396 37.2644C33.4082 37.2875 33.276 37.2202 33.2349 37.1006C33.2349 37.0989 33.1696 36.9413 33.1696 36.9413C33.0695 36.6411 32.9346 35.9221 33.2724 35.5405C33.3412 35.4626 33.4297 35.3988 33.5423 35.3554C34.2814 35.0703 34.6317 36.0266 34.7246 36.3799C34.7246 36.3799 34.8819 36.8678 33.9963 37.1546H33.9954Z" fill="white"/>
<path d="M38.8302 18.8084C38.7703 18.6915 38.6845 18.5897 38.6487 18.4622C38.6005 18.3081 38.6032 18.1435 38.6514 17.9921L38.6604 17.9602L38.6791 17.8964C38.8802 17.1836 38.7417 16.4239 38.3529 15.813C38.1912 15.5589 37.9856 15.3313 37.7434 15.1436C37.4664 14.9169 37.1509 14.7638 36.8212 14.6433C36.7515 14.6301 36.6818 14.6177 36.6121 14.6088L36.1062 14.6088C36.0651 14.6159 36.024 14.6247 35.9829 14.6363C35.5254 14.7629 35.2698 15.2295 35.1161 15.6465C35.0973 15.7014 35.0794 15.7572 35.0624 15.8139C35.0249 15.9325 34.9909 16.0529 34.9579 16.1725C34.9284 16.0547 34.9042 15.9352 34.8873 15.8139C34.8524 15.5598 34.8515 15.2959 34.9007 15.0241C34.9132 14.9532 34.9293 14.8859 34.9489 14.8204C34.9498 14.7992 34.9534 14.777 34.9579 14.7505C34.9668 14.7 34.9641 14.6531 34.9534 14.6088H27.9372C27.6896 14.7336 27.4457 14.8647 27.2089 15.0037C27.3179 15.04 27.426 15.0825 27.5306 15.133C27.8907 15.3048 28.2053 15.5385 28.4716 15.8139C28.7987 16.1503 29.0543 16.5514 29.2348 16.98C28.7451 16.4 28.0462 15.937 27.3054 15.8378C26.6056 15.7492 25.9747 16.014 25.4322 16.4301C25.4322 16.4301 25.4278 16.4222 25.4206 16.408C25.0068 16.887 24.6976 17.4431 24.5654 18.0886C24.4367 18.68 24.4608 19.2387 24.4948 19.8771C24.3446 19.7169 24.2097 19.5407 24.098 19.3503C23.7387 18.7553 23.5805 18.0443 23.661 17.3492C23.7325 16.7914 23.9344 16.2787 24.2302 15.813C24.3822 15.5748 24.5582 15.3481 24.7548 15.1356C24.7486 15.1241 24.745 15.117 24.745 15.117C24.7584 15.1126 24.7718 15.1073 24.7852 15.1029C24.9479 14.9293 25.1239 14.7646 25.3098 14.6088L22.0586 14.6088L22.2946 13.3178C22.2231 13.3267 22.1507 13.3329 22.0801 13.3391C21.7315 13.363 21.3902 13.3674 21.0515 13.3577C20.6377 13.3462 20.2293 13.3134 19.8191 13.2691C20.2507 14.1254 20.5153 15.0657 20.5814 15.9617C19.8477 14.9081 19.0988 13.8597 18.1649 12.9929C17.3722 12.2473 16.365 11.678 15.2605 11.7728C14.172 11.9091 13.2989 12.8025 12.6241 13.6375C11.9798 14.4547 11.4356 15.3632 10.9467 16.2832C10.4606 17.1925 10.0521 18.1594 9.85733 19.1564C9.69736 19.9568 9.65 20.7998 9.68396 21.6188C9.7054 22.0288 9.75456 22.4741 9.80907 22.885C9.87073 23.3658 9.86537 23.8545 9.80013 24.3344C9.74651 24.7833 9.59101 25.234 9.47305 25.6697C9.07179 27.2316 8.86088 28.9493 9.39798 30.4962C9.53114 30.8645 9.69915 31.1904 9.92972 31.51C10.7117 32.6372 11.6196 33.6404 12.6929 34.4895C12.8404 34.6081 12.9923 34.7241 13.1451 34.8375C13.1487 34.8392 13.1496 34.8428 13.1541 34.8419C13.1621 34.8419 13.1863 34.8189 13.1943 34.8224L13.2184 34.8392C14.0022 35.3838 14.8279 35.8575 15.6787 36.3268C15.8503 36.4206 16.0219 36.5136 16.1952 36.6066C16.2042 36.5889 16.2086 36.5791 16.2086 36.5791C16.6287 36.8226 17.0541 37.0581 17.4839 37.2866C17.6492 37.3733 17.8155 37.4592 17.9817 37.5469L17.9879 37.5513C19.9996 38.5899 22.0953 39.4754 24.232 40.2191C25.1561 40.5388 26.0944 40.8204 27.0426 41.0585C27.6709 41.2144 28.3072 41.3498 28.956 41.3808C29.3403 41.4003 29.7308 41.395 30.1115 41.3401C30.5574 41.2055 31.0221 41.0718 31.3689 40.9957C31.9793 40.8496 32.6093 40.7132 33.1714 40.4308C33.2206 40.4033 33.3895 40.3192 33.4315 40.2953C33.6013 40.1917 33.7648 40.081 33.9221 39.9624C34.2653 39.7038 34.5772 39.409 34.8578 39.0814C34.9945 38.922 35.1232 38.7546 35.2447 38.5793C35.5182 38.1826 35.7613 37.7647 35.9811 37.3362C36.1894 36.9537 36.377 36.518 36.4271 36.0983C36.4449 35.962 36.4485 35.8283 36.4369 35.6981C36.0696 36.2072 35.4476 36.9439 34.6138 37.4761C34.4958 37.5513 34.3707 37.6266 34.2403 37.7001C33.9114 37.8851 33.5441 38.0613 33.1428 38.2189C31.5074 38.8627 29.2956 39.2089 26.7388 38.6431C22.072 37.6098 20.5733 34.7498 19.5832 32.5663C18.593 30.3819 15.9414 24.7488 11.5008 26.996C11.5008 26.996 13.3534 24.1786 20.0622 26.8694C20.0622 26.8694 22.3303 28.326 27.3456 25.0658C32.0517 22.0066 34.0857 20.7316 37.8328 22.9921L38.9079 22.0075C38.9571 21.8313 38.9999 21.6542 39.0348 21.4789L39.0857 21.1982L39.0983 21.1283L39.1224 20.9184C39.2028 20.2092 39.1563 19.4477 38.8319 18.8128L38.8302 18.8084ZM18.6046 22.5317C17.8566 23.2932 16.861 23.7748 15.7958 23.8501C12.7814 24.0626 11.8886 21.0229 11.8886 21.0229C11.6429 18.595 12.2765 17.0376 13.0826 16.0494C14.3471 14.5017 16.4187 14.4441 18.0827 15.5518C19.4411 16.4567 20.0032 18.0585 20.0371 19.3273C20.038 19.3724 20.0389 19.4176 20.0389 19.4619C20.0389 20.744 19.5251 21.5949 18.6055 22.5317H18.6046ZM20.7726 23.7713C20.3875 23.7713 20.0747 23.4614 20.0747 23.0798C20.0747 22.6981 20.3875 22.3882 20.7726 22.3882C21.1578 22.3882 21.4697 22.6981 21.4697 23.0798C21.4697 23.4614 21.1578 23.7713 20.7726 23.7713ZM21.4813 21.7268C21.4813 21.4187 21.7333 21.169 22.0443 21.169C22.3553 21.169 22.6082 21.4187 22.6082 21.7268C22.6082 22.035 22.3553 22.2855 22.0443 22.2855C21.7333 22.2855 21.4813 22.035 21.4813 21.7268ZM22.4063 23.7005C22.1578 23.7005 21.9558 23.5012 21.9558 23.2551C21.9558 23.0089 22.1569 22.8097 22.4063 22.8097C22.6556 22.8097 22.8558 23.0089 22.8558 23.2551C22.8558 23.5012 22.6547 23.7005 22.4063 23.7005ZM27.2428 19.9923C26.6637 19.9923 25.3214 19.3565 25.4304 18.0779C25.5145 17.088 26.3465 16.6338 27.342 16.7516C27.8407 16.81 28.3027 16.98 28.6003 17.7238C29.1615 19.1263 27.9899 19.9923 27.2428 19.9923ZM37.5343 18.3622C37.0455 18.6411 36.0902 18.6065 35.8569 17.3537C35.7738 16.9065 35.8229 16.4408 36.0338 16.037C36.0732 15.96 36.1205 15.8847 36.1733 15.8139C36.4101 15.4995 36.7881 15.2835 37.3815 15.5323C37.554 15.6049 37.6934 15.7005 37.8042 15.8139C38.5451 16.5692 38.0205 18.0859 37.5334 18.363L37.5343 18.3622Z" fill="#CCFF00"/>
<path d="M36.713 26.8606C36.2975 27.0129 36.0151 26.8287 35.8238 26.4692C35.6451 26.1319 35.5459 25.6404 35.495 25.1295C35.4181 24.3645 35.4485 23.557 35.4717 23.1612C35.4789 23.0364 35.6058 22.954 35.7237 22.9992C36.2993 23.2188 36.7354 23.464 37.0625 23.6943C37.6246 24.09 37.8614 24.4407 37.9213 24.5407C37.9213 24.5425 37.9231 24.5434 37.924 24.5452C37.9338 24.562 37.94 24.5806 37.9436 24.6001C37.9874 24.8329 38.2046 26.3125 36.713 26.8597V26.8606Z" fill="white"/>
</svg>
