<svg width="43" height="61" viewBox="0 0 43 61" fill="none" xmlns="http://www.w3.org/2000/svg">
<path d="M21.2461 0C32.9796 0.00022496 42.4912 9.701 42.4912 21.667C42.491 33.6328 32.9794 43.3328 21.2461 43.333C9.51256 43.333 0.000212275 33.6329 0 21.667C0 9.70086 9.51243 0 21.2461 0Z" fill="#242424"/>
<path d="M31.2234 19.279C31.4288 19.4684 31.5457 19.735 31.5457 20.0143V30.9462C31.5457 31.4985 31.0979 31.9462 30.5457 31.9462H26.6853C26.133 31.9462 25.6853 31.4985 25.6853 30.9462V23.0956C25.6852 22.5435 25.2374 22.0957 24.6853 22.0956H19.3591C18.8069 22.0956 18.3592 22.5434 18.3591 23.0956V30.9462C18.3591 31.4985 17.9114 31.9462 17.3591 31.9462H13.4978C12.9455 31.9462 12.4978 31.4985 12.4978 30.9462V20.0143C12.4978 19.735 12.6147 19.4683 12.8201 19.279L21.3445 11.4224C21.7274 11.0695 22.317 11.0695 22.6999 11.4224L31.2234 19.279Z" fill="#CCFF00"/>
<path d="M24.607 42.4912H18.7461V60.0486H24.607V42.4912Z" fill="#242424"/>
</svg>
