<svg preserveAspectRatio="xMidYMid meet" width="81.2734" height="27.5665" overflow="visible" style="display: block;" viewBox="0 0 81.2734 27.5665" fill="none" xmlns="http://www.w3.org/2000/svg">
<g id="Vector">
<path d="M2.9314 11.5667H0.38581V0.0302603H11.9488V2.57585H2.9314V4.53137H11.9488V7.07696H2.9314V11.5667Z" fill="var(--fill-0, #242424)"/>
<path d="M16.9491 11.1355C16.2645 10.8518 15.6442 10.4509 15.1147 9.93649C14.5813 9.4183 14.1653 8.81688 13.8702 8.14361C13.5639 7.44386 13.4126 6.69871 13.4126 5.93466V5.67745C13.4126 4.9134 13.5676 4.16826 13.8702 3.46851C14.1615 2.79523 14.5813 2.19004 15.1147 1.67562C15.6442 1.16121 16.2607 0.75649 16.9491 0.476589C17.6565 0.18534 18.4092 0.037825 19.1846 0.037825H20.2361C21.0115 0.037825 21.7604 0.18534 22.4715 0.476589C23.1561 0.760272 23.7765 1.16121 24.306 1.67562C24.8393 2.19382 25.2554 2.79523 25.5504 3.46851C25.8568 4.16826 26.0081 4.9134 26.0081 5.67745V5.93466C26.0081 6.7025 25.853 7.44386 25.5504 8.14361C25.2592 8.81688 24.8393 9.42208 24.306 9.93649C23.7765 10.4509 23.1599 10.8556 22.4715 11.1355C21.7642 11.4268 21.0115 11.5743 20.2361 11.5743H19.1846C18.4092 11.5743 17.6602 11.4268 16.9491 11.1355ZM19.1846 9.0287H20.2361C22.0138 9.0287 23.4625 7.64055 23.4625 5.93088V5.67367C23.4625 3.964 22.0138 2.57585 20.2361 2.57585H19.1846C17.4068 2.57585 15.9581 3.964 15.9581 5.67367V5.93088C15.9581 7.64055 17.4068 9.0287 19.1846 9.0287Z" fill="var(--fill-0, #242424)"/>
<path d="M30.7702 11.1355C30.0856 10.8518 29.4653 10.4509 28.9357 9.93649C28.4024 9.4183 27.9863 8.81688 27.6913 8.14361C27.3849 7.44386 27.2336 6.69871 27.2336 5.93466V5.67745C27.2336 4.9134 27.3887 4.16826 27.6913 3.46851C27.9825 2.79523 28.4024 2.19004 28.9357 1.67562C29.4653 1.16121 30.0818 0.75649 30.7702 0.476589C31.4775 0.18534 32.2302 0.037825 33.0056 0.037825H34.0572C34.8326 0.037825 35.5815 0.18534 36.2926 0.476589C36.9772 0.760272 37.5975 1.16121 38.1271 1.67562C38.6604 2.19382 39.0765 2.79523 39.3715 3.46851C39.6779 4.16826 39.8292 4.9134 39.8292 5.67745V5.93466C39.8292 6.7025 39.6741 7.44386 39.3715 8.14361C39.0802 8.81688 38.6604 9.42208 38.1271 9.93649C37.5975 10.4509 36.981 10.8556 36.2926 11.1355C35.5853 11.4268 34.8326 11.5743 34.0572 11.5743H33.0056C32.2302 11.5743 31.4813 11.4268 30.7702 11.1355ZM33.0056 9.0287H34.0572C35.8349 9.0287 37.2836 7.64055 37.2836 5.93088V5.67367C37.2836 3.964 35.8349 2.57585 34.0572 2.57585H33.0056C31.2279 2.57585 29.7792 3.964 29.7792 5.67367V5.93088C29.7792 7.64055 31.2279 9.0287 33.0056 9.0287Z" fill="var(--fill-0, #242424)"/>
<path d="M47.7458 11.5516H41.5956V0H47.7458C48.4721 0 49.1756 0.143734 49.8375 0.423636C50.4768 0.695972 51.0517 1.08178 51.5434 1.5735C52.0351 2.06522 52.4247 2.64015 52.6933 3.27938C52.9732 3.94131 53.1169 4.64485 53.1169 5.37108V6.17295C53.1169 6.89918 52.9732 7.60272 52.6933 8.26465C52.4209 8.90388 52.0351 9.47881 51.5434 9.97053C51.0517 10.4623 50.4768 10.8518 49.8375 11.1204C49.1756 11.4003 48.4721 11.544 47.7458 11.544V11.5516ZM44.1412 9.00601H47.7458C49.3042 9.00601 50.5751 7.73889 50.5751 6.17674V5.37486C50.5751 3.81649 49.308 2.54559 47.7458 2.54559H44.1412V9.00601Z" fill="var(--fill-0, #242424)"/>
<path d="M0.873746 21.6394C0.313944 21.0191 0.00378236 20.2172 0.00378236 19.3813C0.00378236 18.481 0.35555 17.6338 0.994784 16.9945C1.63402 16.3591 2.48128 16.0073 3.38151 16.0073H8.21926C8.67693 16.0073 9.11948 16.0981 9.53933 16.2759C9.94405 16.4461 10.3034 16.6919 10.6173 17.0021C11.2566 17.6413 11.6045 18.4924 11.6008 19.3926V19.5666L9.05518 19.559V19.385C9.05518 19.1657 8.97196 18.9576 8.8131 18.8025C8.65424 18.6437 8.4462 18.5567 8.21926 18.5567H3.38151C2.92005 18.5567 2.54937 18.9274 2.54937 19.385C2.54937 19.8087 2.87088 20.1642 3.29451 20.2058L8.58237 20.7619C9.41451 20.8488 10.1786 21.2384 10.7384 21.8588C11.2982 22.4791 11.6083 23.281 11.6083 24.1169V24.185C11.6083 25.089 11.2566 25.9362 10.6173 26.5717C9.9781 27.2071 9.13083 27.5589 8.22682 27.5589H3.38151C2.4775 27.5589 1.62645 27.2071 0.987219 26.5679C0.351768 25.9287 0 25.0814 0 24.1812V24.0034H2.54559V24.1812C2.54559 24.4006 2.63258 24.6086 2.78766 24.7637C2.94653 24.9225 3.15456 25.0095 3.38151 25.0095H8.22682C8.44999 25.0095 8.6618 24.9225 8.81688 24.7675C8.97197 24.6124 9.05896 24.4044 9.05896 24.185V24.1169C9.05896 23.6933 8.73745 23.3415 8.31382 23.2961L3.02596 22.7401C2.19382 22.6531 1.42977 22.2635 0.869964 21.6432L0.873746 21.6394Z" fill="var(--fill-0, #242424)"/>
<path d="M13.5601 27.506V15.9544H25.1911V18.5H16.1057V20.4555H25.1949V23.0011H16.1057V24.9566H25.2024V27.5022H13.5601V27.506Z" fill="var(--fill-0, #242424)"/>
<path d="M37.8963 17.1383C38.2519 17.4938 38.5318 17.9099 38.7285 18.3713C38.9327 18.8517 39.0349 19.3623 39.0349 19.8843V20.5765C39.0349 21.0985 38.9327 21.6091 38.7285 22.0895C38.5696 22.4677 38.3502 22.8157 38.0817 23.1259C38.3578 23.4209 38.5772 23.7538 38.7398 24.1169C38.9441 24.5708 39.0462 25.0549 39.0462 25.5466V27.5665H36.5006V25.5466C36.5006 24.9604 35.9408 24.4611 35.2751 24.4611C35.2335 24.4611 35.1881 24.4611 35.1465 24.4611H30.0175V27.5665H27.4757V22.8044C27.4643 22.7476 27.4606 22.6909 27.4606 22.6304V17.8267C27.4606 17.7926 27.4606 17.7624 27.4606 17.7283V15.996H35.1427C35.6685 15.996 36.1753 16.0981 36.6557 16.3023C37.1172 16.499 37.5332 16.7789 37.8888 17.1345L37.8963 17.1383ZM36.4893 19.8881C36.4893 19.1505 35.8879 18.5491 35.1503 18.5491H30.0137V21.9231H35.1503C35.8879 21.9231 36.4893 21.3217 36.4893 20.5841V19.8881Z" fill="var(--fill-0, #242424)"/>
<path d="M45.3061 23.6516L48.351 16.0035H51.0933L46.4901 27.5627H44.126L39.5228 16.0035H42.2651L45.3099 23.6516H45.3061Z" fill="var(--fill-0, #242424)"/>
<path d="M52.2205 27.5173V15.9354H54.766V27.5173H52.2205Z" fill="var(--fill-0, #242424)"/>
<path d="M56.975 24.011C56.6838 23.2999 56.5362 22.5472 56.5362 21.7718C56.5362 20.9964 56.6838 20.2437 56.975 19.5326C57.2587 18.8441 57.6634 18.2238 58.1778 17.6943C58.696 17.161 59.3012 16.7411 59.9745 16.4461C60.6742 16.1397 61.4194 15.9846 62.1872 15.9846H63.303C65.1791 15.9846 66.9304 16.934 67.9857 18.5264L65.8637 19.9335C65.5801 19.5061 65.2018 19.1543 64.7631 18.9122C64.3129 18.6626 63.8212 18.534 63.303 18.534H62.1872C60.4738 18.534 59.078 19.9902 59.078 21.7755C59.078 23.5609 60.4738 25.0171 62.1872 25.0171H63.303C64.3319 25.0171 65.2964 24.4876 65.8751 23.5949L68.0084 24.9868C66.9569 26.5982 65.198 27.5627 63.303 27.5627H62.1872C61.4194 27.5627 60.6742 27.4076 59.9745 27.1012C59.3012 26.8062 58.696 26.3864 58.1778 25.853C57.6634 25.3197 57.2587 24.7032 56.975 24.0148V24.011Z" fill="var(--fill-0, #242424)"/>
<path d="M69.6311 27.506V15.9544H81.2621V18.5H72.1766V20.4555H81.2659V23.0011H72.1766V24.9566H81.2734V27.5022H69.6311V27.506Z" fill="var(--fill-0, #242424)"/>
</g>
</svg>
