<svg width="124" height="28" viewBox="0 0 124 28" fill="none" xmlns="http://www.w3.org/2000/svg">
<path d="M2.37249 22.2343C4.09868 24.7272 6.7321 26.4802 10.1403 27.2602C10.337 27.1878 10.5257 27.1155 10.7063 27.0511C16.6075 24.9081 22.356 22.9219 28.3696 21.1246C30.2684 20.5577 32.1511 20.0752 34.0298 19.6611C34.6922 17.9563 35.0375 16.0304 35.0375 13.9196V13.8794C35.0375 13.5859 35.0294 13.2964 35.0134 13.0109C34.909 13.0471 34.8006 13.0833 34.6962 13.1195L17.2217 19.251C14.6083 20.1677 12.276 20.9558 9.47794 21.5669C9.07248 19.9265 9.18489 18.7122 9.45385 17.2085C10.3892 11.9374 12.1475 7.04423 13.6529 1.9058L14.1748 0.12062C12.3683 0.136703 10.7103 0.377944 9.22102 0.812177C9.17284 0.944859 9.12467 1.08156 9.0765 1.21424L2.64146 21.3257C2.55314 21.5951 2.46483 21.9006 2.37651 22.2343H2.37249Z" fill="#F25130"/>
<path d="M25.3708 4.32223C27.1171 4.15738 28.6024 3.75531 30.2082 3.24067L30.4209 3.17231C28.755 1.82137 26.6635 0.880528 24.1986 0.430213C24.014 2.41643 24.3552 4.41872 25.3708 4.32223Z" fill="#F25130"/>
<path d="M0 13.9196C0 16.2636 0.425524 18.3825 1.24446 20.22L3.50455 10.7754L6.30257 2.03848C2.24403 4.33027 0 8.53188 0 13.8794V13.9196Z" fill="#F25130"/>
<path d="M21.6254 0.144744C21.3163 0.132682 21.0032 0.12062 20.6861 0.12062H16.3465C14.9656 4.1614 13.8094 8.12579 12.7938 12.2832C12.1194 15.0414 12.0632 18.3423 13.8135 17.884C16.0053 17.309 17.8359 16.7461 19.9314 15.95L34.6882 10.3492C34.2426 8.25847 33.3875 6.42102 32.1591 4.90121L28.3616 6.5135C25.7402 7.62321 23.3998 8.59621 20.5616 9.47272C20.2886 8.01723 20.3007 7.03217 20.5375 5.70936C20.8707 3.84377 21.236 1.99024 21.6335 0.144744H21.6254Z" fill="#F25130"/>
<path d="M32.6288 22.2987C32.5445 22.3148 32.4602 22.3268 32.3759 22.3429C28.3535 23.0988 24.7285 24.3774 20.9149 25.865C19.9715 26.2349 18.1811 26.9144 16.0174 27.7145H20.6861C26.1376 27.7145 30.2363 25.7042 32.6288 22.2947V22.2987Z" fill="#F25130"/>
<path d="M46.4784 0V27.5457H40.9546V0H46.4784Z" fill="#242424"/>
<path d="M58.1683 7.50258C61.0667 7.50258 63.4311 8.44342 65.2617 10.3251C67.0882 12.2068 68.0035 14.6875 68.0035 17.7714C68.0035 20.8553 67.0882 23.328 65.2617 25.1976C63.4311 27.0672 61.0667 28 58.1683 28C55.2699 28 52.8653 27.0672 51.0387 25.1976C49.2082 23.328 48.2969 20.8553 48.2969 17.7714C48.2969 14.6875 49.2122 12.2068 51.0387 10.3251C52.8653 8.44342 55.2458 7.50258 58.1683 7.50258ZM58.1683 23.2275C59.481 23.2275 60.5247 22.7209 61.3075 21.7117C62.0903 20.7025 62.4797 19.3877 62.4797 17.7714C62.4797 16.1551 62.0943 14.8041 61.3276 13.7909C60.5568 12.7817 59.5051 12.2751 58.1683 12.2751C56.8315 12.2751 55.7717 12.7817 54.9889 13.7909C54.2061 14.8001 53.8167 16.1269 53.8167 17.7714C53.8167 19.4159 54.2061 20.7025 54.9889 21.7117C55.7717 22.7209 56.8315 23.2275 58.1683 23.2275Z" fill="#242424"/>
<path d="M74.1334 21.7478C74.4345 23.139 75.5706 23.8306 77.5376 23.8306C78.4449 23.8306 79.1514 23.6456 79.6572 23.2797C80.163 22.9138 80.4119 22.4273 80.4119 21.8202C80.4119 20.9115 79.6933 20.3567 78.2562 20.1516L74.9283 19.7737C70.9942 19.2952 69.0272 17.3733 69.0272 14.0161C69.0272 12.0982 69.7979 10.5302 71.3354 9.31591C72.8729 8.10167 74.8279 7.49856 77.2004 7.49856C79.5729 7.49856 81.3794 8.04136 82.8567 9.12694C84.334 10.2125 85.1971 11.7163 85.45 13.6341H80.1149C79.7375 12.3475 78.7138 11.7002 77.0519 11.7002C76.245 11.7002 75.5947 11.8851 75.1049 12.251C74.6152 12.6169 74.3663 13.0672 74.3663 13.5979C74.3663 14.5348 75.0487 15.0735 76.4096 15.2263L79.89 15.6445C81.7045 15.8736 83.1417 16.4647 84.2015 17.4256C85.2613 18.3866 85.7912 19.7375 85.7912 21.4785C85.7912 23.525 85.0204 25.1212 83.4829 26.2711C81.9454 27.421 79.9663 27.996 77.5457 27.996C75.125 27.996 73.17 27.4652 71.5321 26.4038C69.8943 25.3423 68.971 23.7904 68.7702 21.7438H74.1415L74.1334 21.7478Z" fill="#242424"/>
<path d="M96.3771 7.50258C99.2755 7.50258 101.64 8.44342 103.47 10.3251C105.297 12.2068 106.212 14.6875 106.212 17.7714C106.212 20.8553 105.297 23.328 103.47 25.1976C101.64 27.0672 99.2755 28 96.3771 28C93.4787 28 91.0741 27.0672 89.2476 25.1976C87.417 23.328 86.5057 20.8553 86.5057 17.7714C86.5057 14.6875 87.421 12.2068 89.2476 10.3251C91.0741 8.44342 93.4546 7.50258 96.3771 7.50258ZM96.3771 23.2275C97.6898 23.2275 98.7335 22.7209 99.5163 21.7117C100.299 20.7025 100.689 19.3877 100.689 17.7714C100.689 16.1551 100.303 14.8041 99.5364 13.7909C98.7656 12.7817 97.7139 12.2751 96.3771 12.2751C95.0403 12.2751 93.9805 12.7817 93.1977 13.7909C92.4149 14.8001 92.0255 16.1269 92.0255 17.7714C92.0255 19.4159 92.4149 20.7025 93.1977 21.7117C93.9805 22.7209 95.0403 23.2275 96.3771 23.2275Z" fill="#242424"/>
<path d="M112.342 21.7478C112.643 23.139 113.779 23.8306 115.746 23.8306C116.654 23.8306 117.36 23.6456 117.866 23.2797C118.372 22.9138 118.621 22.4273 118.621 21.8202C118.621 20.9115 117.902 20.3567 116.465 20.1516L113.137 19.7737C109.203 19.2952 107.236 17.3733 107.236 14.0161C107.236 12.0982 108.007 10.5302 109.544 9.31591C111.082 8.10167 113.037 7.49856 115.409 7.49856C117.782 7.49856 119.588 8.04136 121.065 9.12694C122.543 10.2125 123.406 11.7163 123.659 13.6341H118.324C117.946 12.3475 116.923 11.7002 115.261 11.7002C114.454 11.7002 113.803 11.8851 113.314 12.251C112.824 12.6169 112.575 13.0672 112.575 13.5979C112.575 14.5348 113.258 15.0735 114.618 15.2263L118.099 15.6445C119.913 15.8736 121.351 16.4647 122.41 17.4256C123.47 18.3866 124 19.7375 124 21.4785C124 23.525 123.229 25.1212 121.692 26.2711C120.154 27.421 118.175 27.996 115.754 27.996C113.334 27.996 111.379 27.4652 109.741 26.4038C108.103 25.3423 107.18 23.7904 106.979 21.7438H112.35L112.342 21.7478Z" fill="#242424"/>
</svg>
