<svg preserveAspectRatio="none" width="100%" height="100%" overflow="visible" style="display: block;" viewBox="0 0 80 47" fill="none" xmlns="http://www.w3.org/2000/svg">
<g id="Vector">
<path d="M79.9866 32.0957C79.8747 30.1739 78.3739 28.9891 77.8078 28.5449C73.73 25.3297 69.221 22.5819 64.4093 20.3836C63.2705 19.8636 62.0955 19.3272 60.7955 19.3272C60.779 19.3272 60.7593 19.3272 60.7428 19.3272C59.716 19.3371 58.36 19.6793 57.241 21.0779C56.2141 18.9093 54.6738 17.2441 52.709 16.2404C53.8016 15.5921 54.8647 14.3021 54.8647 11.7253C54.8647 10.7381 54.552 9.65866 53.7984 8.83595V8.33903C54.3612 7.66111 54.7857 6.64424 54.7857 5.11399C54.7857 2.58332 53.1138 0.681207 50.7211 0.490337L49.8884 0.427811C48.46 0.322504 47.5154 0.253396 45.8533 0.161252C45.1029 0.11518 44.4414 0.200742 43.8589 0.378448C43.3685 0.157961 42.7596 0 42.0092 0C41.8907 0 41.6274 0 41.3115 0.00658171C40.8803 0.00987257 40.3504 0.0164543 39.9983 0.0164543C39.2544 0.0164543 38.6192 0.174415 38.0926 0.447556C37.543 0.19087 36.921 0.0658171 36.2232 0.0789805C35.769 0.0789805 34.9956 0.0954348 34.469 0.111889C33.8667 0.125053 33.2611 0.263268 32.7082 0.529828C32.4548 0.483756 32.1882 0.457429 31.9084 0.450847H31.8854C29.6539 0.417939 27.3863 0.417939 25.1943 0.417939H25.0397C24.1082 0.417939 21.2811 0.411357 20.4945 3.37971C20.274 4.23533 20.1719 5.51547 20.1719 6.15061C20.1719 8.22385 21.3667 9.70473 23.2295 10.0569C23.2064 11.0408 23.1867 12.0544 23.1867 13.0746C23.1867 13.7722 23.2887 14.3514 23.4566 14.8352C21.1692 16.0166 19.2537 17.7278 18.0853 19.7254C17.562 20.6205 17.1901 21.5584 16.963 22.5193C13.3427 20.604 9.24837 20.7061 6.07893 23.0886C4.65712 24.1516 0.019787 27.9657 3.96624e-05 32.1879C-0.00654278 33.9912 0.806389 35.6103 2.29731 36.7523C3.59735 37.7494 5.12776 38.3483 6.67135 38.7794C6.54299 40.1188 6.99389 41.4385 7.9648 42.3533C11.2231 45.427 14.6888 46.9901 18.263 47H18.2927C20.3859 47 22.2553 46.4406 23.7034 45.4204C24.6019 45.8811 25.5498 45.97 26.1323 45.97H26.1488C26.8037 45.97 27.9458 45.9074 29.157 45.835C29.4466 45.8186 29.677 45.8054 29.7955 45.7988C32.3133 45.6837 34.1267 43.8704 34.107 41.4812C34.107 41.2344 34.0938 40.9284 34.0741 40.5894C34.7981 40.2768 35.4761 39.8983 36.1113 39.4705C36.3121 40.132 36.5589 40.7638 36.8584 41.3595C38.5271 44.6635 41.5353 46.4768 45.3366 46.4768C45.3728 46.4768 45.4123 46.4768 45.4485 46.4768C48.6673 46.4471 51.6558 44.9136 54.0024 42.1262C54.009 42.8535 54.1834 43.7124 54.7989 44.4989C55.2202 45.0386 56.1878 45.9403 57.9288 45.9436H57.9387C58.2645 45.9436 59.0479 45.9009 61.1246 45.7659L61.6413 45.733C64.6693 45.5553 65.4361 43.311 65.7257 42.4652L65.7751 42.3204C66.3478 40.675 67.7959 38.842 69.1486 37.315C69.3099 37.3578 69.481 37.4039 69.662 37.4532C70.3598 37.6408 71.0444 37.8251 71.4755 37.9436C72.397 38.197 74.5594 38.7959 76.4716 37.2426C76.8007 36.9761 78.1468 35.7749 78.6701 35.2549C79.0223 34.9028 80.0952 33.8333 79.9932 32.0858L79.9866 32.0957Z" fill="#281D1B"/>
<path d="M18.5625 27.9854C19.6519 29.2524 19.1418 32.4676 17.7595 32.7276C16.9038 32.8888 14.9751 31.8555 14.1556 32.0694C13.8462 32.1517 13.7705 32.5959 13.9548 32.7802C15.9789 34.7876 21.5839 34.7942 23.0452 38.6544C24.1049 41.4549 21.8176 43.719 18.2729 43.7091C15.143 43.7026 12.4014 42.0144 10.2259 39.9609C9.53471 39.3093 10.1864 37.6638 11.3712 37.8021C12.2401 37.9008 14.1786 38.7893 15.4918 38.7103C15.7354 38.6972 15.8407 38.5129 15.7189 38.3845C13.4842 36.0053 7.39542 36.5088 4.30167 34.1393C1.12564 31.7074 6.32906 27.0179 8.06353 25.7147C11.437 23.1775 15.8078 24.7439 18.5658 27.9854H18.5625Z" fill="var(--fill-0, #F25130)"/>
<path d="M38.2967 28.3639C38.4251 33.389 35.4761 37.3545 30.5294 38.2299C30.6841 39.1743 30.8059 40.7441 30.8125 41.5109C30.8158 42.0144 30.4899 42.4751 29.6408 42.5113C29.1734 42.531 26.9617 42.6791 26.1356 42.6791C24.9936 42.6791 24.7895 42.2217 24.6908 41.4088C24.1082 36.5976 21.9525 31.6942 20.399 27.0706C18.5559 21.5814 23.4697 17.5205 28.298 16.5991C35.0779 15.3058 38.1618 23.013 38.3 28.3639H38.2967ZM28.3013 28.0249C28.6304 29.746 28.9529 31.2138 29.2261 32.5663C31.8788 32.2043 32.0006 27.041 28.3013 28.0249Z" fill="var(--fill-0, #F25130)"/>
<path d="M45.4123 43.1925C32.9616 43.3077 40.0246 16.7965 49.4737 18.5835C59.6041 20.4954 55.7435 43.097 45.4123 43.1925ZM47.7096 29.1471C46.6399 29.0253 44.1617 37.3512 45.9982 37.4763C47.6833 37.5914 48.8714 29.2787 47.7096 29.1471Z" fill="var(--fill-0, #F25130)"/>
<path d="M75.7706 31.1249C77.0475 32.1319 76.7744 32.4972 76.3366 32.9349C75.8825 33.3857 74.6252 34.5046 74.3915 34.6955C73.8715 35.1167 73.2429 35.0279 72.3444 34.7811C71.2583 34.4816 68.6286 33.7839 68.0658 33.6161C66.0779 35.7584 63.6161 38.4767 62.655 41.2476C62.372 42.0637 62.3193 42.3994 61.4373 42.452C61.0555 42.4751 58.3304 42.6561 57.9288 42.6561C57.2772 42.6561 57.162 42.3369 57.3891 41.4088C58.202 38.1081 60.4894 34.8929 62.191 31.9378C61.118 31.6811 58.7319 31.2072 57.6853 31.0064C56.7539 30.8287 56.563 30.6576 57.1422 29.0846C57.6063 27.8275 58.722 25.1125 59.4461 23.704C60.2393 22.1573 61.016 22.4436 63.0434 23.3717C67.5952 25.4515 71.8573 28.0348 75.7738 31.1249H75.7706Z" fill="var(--fill-0, #F25130)"/>
<path d="M31.8393 3.73512C32.5667 3.75158 32.5798 4.01155 32.6128 4.41633C32.6424 4.83427 32.751 5.93012 32.7674 6.13086C32.8135 6.57842 32.5502 6.68702 32.0862 6.73309C31.5299 6.79562 30.1378 6.87131 29.8284 6.87131C29.858 8.92809 29.9535 10.8434 29.9995 12.8969C30.016 13.5452 29.9831 13.7624 29.3808 13.8084C29.1175 13.8249 27.2645 13.9631 26.9848 13.9631C26.5372 13.9631 26.4746 13.7624 26.4746 13.068C26.4746 10.9816 26.5668 8.91164 26.5668 6.82523C25.9809 6.82523 24.6809 6.84169 24.1082 6.84169C23.5981 6.84169 23.4599 6.766 23.4599 6.14732C23.4599 5.65369 23.552 4.6796 23.6771 4.19913C23.8153 3.67259 24.1708 3.7055 25.1911 3.7055C27.3863 3.7055 29.6243 3.7055 31.836 3.73512H31.8393Z" fill="var(--fill-0, #F25130)"/>
<path d="M42.8287 4.30773C42.7036 7.04243 42.5654 9.68499 42.4272 12.4658C42.3976 13.0055 42.21 13.3016 41.6702 13.453C41.1897 13.5912 40.5874 13.8249 40.0937 13.8249C39.2906 13.8249 39.2281 13.068 39.2117 12.4329L39.1656 10.2082L36.9111 10.2379C36.9111 10.8401 36.9111 11.4588 36.8946 12.061C36.8782 12.6797 36.8025 13.3444 36.0916 13.5123C35.5979 13.6373 35.0088 13.7887 34.4986 13.7887C33.7416 13.7887 33.5573 13.2951 33.5573 12.6139C33.587 9.98775 33.6495 7.09838 33.7285 4.47227C33.7449 3.87005 33.8667 3.40604 34.548 3.38958C35.0878 3.37313 35.8612 3.35996 36.2627 3.35996C36.8354 3.34351 36.9111 3.53109 36.9111 3.97864C36.9111 4.84414 36.9275 6.6212 36.9275 7.50315L39.3071 7.41101C39.3367 6.2987 39.3532 5.16993 39.3532 4.05762C39.3532 3.564 39.4157 3.30073 40.0016 3.30073C40.5874 3.30073 41.7327 3.28427 42.0092 3.28427C42.7662 3.28427 42.8583 3.62323 42.8287 4.30444V4.30773Z" fill="var(--fill-0, #F25130)"/>
<path d="M50.4611 3.76803C51.2345 3.83056 51.4978 4.38671 51.4978 5.1107C51.4978 5.44966 51.4978 6.36122 50.958 6.39413C50.1846 6.4402 47.7425 6.48628 47.2192 6.48628L47.1896 7.0885H49.7995C50.155 7.0885 50.5104 7.11812 50.5104 7.97045V9.12883C50.5104 9.83966 50.1846 9.91535 49.7699 9.9318L47.16 10.0075L47.1435 10.7019L50.3261 10.7644C51.037 10.7808 51.5768 10.8894 51.5768 11.722C51.5768 12.6336 51.4846 13.5155 50.4018 13.5912L45.4716 13.9631C43.849 14.0552 43.6021 12.7718 43.6318 11.4291C43.6778 9.00378 43.7568 7.07205 44.0037 4.60062C44.0958 3.76474 44.6356 3.37971 45.6559 3.44223C47.6043 3.55083 48.562 3.62652 50.4611 3.76803Z" fill="var(--fill-0, #F25130)"/>
</g>
</svg>
